<svg width="72" height="73" viewBox="0 0 72 73" fill="none" xmlns="http://www.w3.org/2000/svg">
<circle cx="36" cy="36.9957" r="36" fill="#72B3EA"/>
<path d="M35.5449 38.1513C36.4707 38.1513 37.267 37.8217 37.9337 37.1624C38.6003 36.503 38.9337 35.7104 38.9337 34.7846C38.9337 33.8587 38.604 33.0624 37.9447 32.3958C37.2854 31.7291 36.4928 31.3958 35.5669 31.3958C34.6411 31.3958 33.8448 31.7254 33.1781 32.3848C32.5115 33.0441 32.1781 33.8367 32.1781 34.7625C32.1781 35.6884 32.5078 36.4847 33.1671 37.1513C33.8264 37.818 34.619 38.1513 35.5449 38.1513ZM35.5559 51.5736C39.2406 48.1858 41.9618 45.1133 43.7194 42.3561C45.4771 39.5989 46.3559 37.1851 46.3559 35.1148C46.3559 31.8503 45.3144 29.1773 43.2313 27.0958C41.1482 25.0143 38.5931 23.9736 35.5659 23.9736C32.5387 23.9736 29.9803 25.0152 27.8905 27.0985C25.8008 29.1818 24.7559 31.8572 24.7559 35.1245C24.7559 37.2017 25.6573 39.6114 27.4602 42.3538C29.263 45.0962 31.9616 48.1695 35.5559 51.5736ZM35.567 56.1513C35.2337 56.1513 34.9115 56.0995 34.6003 55.9958C34.2892 55.8921 34.0152 55.7365 33.7781 55.5291C29.3337 51.5603 26.0226 47.8955 23.8448 44.5349C21.667 41.1743 20.5781 38.0391 20.5781 35.1291C20.5781 30.4543 22.0833 26.7301 25.0936 23.9564C28.104 21.1826 31.59 19.7958 35.5518 19.7958C39.5136 19.7958 43.001 21.1826 46.0141 23.9564C49.0271 26.7301 50.5337 30.4543 50.5337 35.1291C50.5337 38.0328 49.4448 41.1665 47.267 44.5303C45.0892 47.894 41.7781 51.5603 37.3337 55.5291C37.0966 55.7365 36.8263 55.8921 36.5226 55.9958C36.2189 56.0995 35.9003 56.1513 35.567 56.1513Z" fill="#F4FAFF"/>
</svg>
