<svg width="14" height="20" viewBox="0 0 14 20" fill="none" xmlns="http://www.w3.org/2000/svg">
<path d="M6.99541 19.625C6.665 19.625 6.38729 19.5114 6.16229 19.2844C5.93729 19.0573 5.82479 18.7791 5.82479 18.45V16.1H1.74979C1.42062 16.1 1.1425 15.986 0.915414 15.7581C0.688331 15.5302 0.574789 15.251 0.574789 14.9206C0.574789 14.5902 0.688331 14.3125 0.915414 14.0875C1.1425 13.8625 1.42062 13.75 1.74979 13.75H5.82479V11.675H1.74979C1.42062 11.675 1.1425 11.561 0.915414 11.3331C0.688331 11.1052 0.574789 10.826 0.574789 10.4956C0.574789 10.1652 0.688331 9.88748 0.915414 9.66248C1.1425 9.43748 1.42062 9.32498 1.74979 9.32498H4.74979L0.249789 2.17498C-0.0168778 1.79164 -0.0416612 1.39164 0.175439 0.974976C0.392539 0.558309 0.741031 0.349976 1.22091 0.349976C1.4235 0.349976 1.61681 0.405676 1.80086 0.517076C1.98493 0.628476 2.13457 0.764442 2.24979 0.924976L6.99979 8.47498L11.7498 0.924976C11.8635 0.747776 12.0111 0.607642 12.1924 0.504576C12.3738 0.401509 12.5679 0.349976 12.7748 0.349976C13.256 0.349976 13.6055 0.558309 13.8232 0.974976C14.0409 1.39164 14.0248 1.79164 13.7748 2.17498L9.27479 9.32498H12.2498C12.579 9.32498 12.8571 9.43893 13.0842 9.66685C13.3112 9.89478 13.4248 10.174 13.4248 10.5044C13.4248 10.8348 13.3112 11.1125 13.0842 11.3375C12.8571 11.5625 12.579 11.675 12.2498 11.675H8.17479V13.75H12.2498C12.579 13.75 12.8571 13.8639 13.0842 14.0919C13.3112 14.3198 13.4248 14.599 13.4248 14.9294C13.4248 15.2598 13.3112 15.5375 13.0842 15.7625C12.8571 15.9875 12.579 16.1 12.2498 16.1H8.17479V18.45C8.17479 18.7791 8.06083 19.0573 7.83291 19.2844C7.60498 19.5114 7.32581 19.625 6.99541 19.625Z" fill="#203253"/>
</svg>
