<svg width="29" height="35" viewBox="0 0 29 35" fill="none" xmlns="http://www.w3.org/2000/svg">
<path d="M6.02222 34.4001C5.51852 34.2519 5.1926 33.9186 5.04445 33.4001C4.8963 32.8816 5.01482 32.4297 5.4 32.0445L6.55556 30.889C4.80741 30.889 3.33334 30.289 2.13334 29.089C0.933336 27.889 0.333336 26.4149 0.333336 24.6667V7.77786C0.333336 6.56304 0.614817 5.50379 1.17778 4.60008C1.74074 3.69638 2.60741 2.95564 3.77778 2.37786C4.94815 1.80008 6.42963 1.37045 8.22223 1.08897C10.0148 0.807489 12.1259 0.666748 14.5556 0.666748C17.1037 0.666748 19.2741 0.800081 21.0667 1.06675C22.8593 1.33341 24.3259 1.75564 25.4667 2.33341C26.6074 2.91119 27.4444 3.64453 27.9778 4.53341C28.5111 5.4223 28.7778 6.50379 28.7778 7.77786V24.6667C28.7778 26.4149 28.1778 27.889 26.9778 29.089C25.7778 30.289 24.3037 30.889 22.5556 30.889L23.7111 32.0445C24.0963 32.4297 24.2148 32.8816 24.0667 33.4001C23.9185 33.9186 23.5926 34.2519 23.0889 34.4001C22.8519 34.4593 22.6074 34.4593 22.3556 34.4001C22.1037 34.3408 21.8889 34.2223 21.7111 34.0445L18.5556 30.889H10.5556L7.4 34.0445C7.22222 34.2223 7.00741 34.3408 6.75556 34.4001C6.50371 34.4593 6.25926 34.4593 6.02222 34.4001ZM3 15.5556H13.4V8.66675H3V15.5556ZM16.0667 15.5556H26.1111V8.66675H16.0667V15.5556ZM8.11111 25.7779C8.7926 25.7779 9.37037 25.5408 9.84445 25.0667C10.3185 24.5927 10.5556 24.0149 10.5556 23.3334C10.5556 22.6519 10.3185 22.0742 9.84445 21.6001C9.37037 21.126 8.7926 20.889 8.11111 20.889C7.42963 20.889 6.85185 21.126 6.37778 21.6001C5.90371 22.0742 5.66667 22.6519 5.66667 23.3334C5.66667 24.0149 5.90371 24.5927 6.37778 25.0667C6.85185 25.5408 7.42963 25.7779 8.11111 25.7779ZM21 25.7779C21.6815 25.7779 22.2593 25.5408 22.7333 25.0667C23.2074 24.5927 23.4444 24.0149 23.4444 23.3334C23.4444 22.6519 23.2074 22.0742 22.7333 21.6001C22.2593 21.126 21.6815 20.889 21 20.889C20.3185 20.889 19.7407 21.126 19.2667 21.6001C18.7926 22.0742 18.5556 22.6519 18.5556 23.3334C18.5556 24.0149 18.7926 24.5927 19.2667 25.0667C19.7407 25.5408 20.3185 25.7779 21 25.7779Z" fill="white"/>
</svg>
