<svg width="40" height="29" viewBox="0 0 40 29" fill="none" xmlns="http://www.w3.org/2000/svg">
<path d="M8.96079 28.6222C7.50545 28.6222 6.26666 28.1185 5.24444 27.1111C4.22222 26.1036 3.7111 24.8592 3.7111 23.3777H3.44444C2.7111 23.3777 2.08333 23.1166 1.5611 22.5944C1.03888 22.0722 0.777771 21.4444 0.777771 20.7111V2.88883C0.777771 2.17772 1.04444 1.5555 1.57777 1.02217C2.1111 0.488835 2.73333 0.222168 3.44444 0.222168H26.5111C27.2444 0.222168 27.8722 0.483279 28.3944 1.0055C28.9167 1.52772 29.1778 2.1555 29.1778 2.88883V7.64439H33.1778C33.4 7.64439 33.6 7.68883 33.7778 7.77772C33.9555 7.86661 34.1111 7.99995 34.2444 8.17772L39.6222 15.3333C39.7111 15.4444 39.7778 15.5666 39.8222 15.6999C39.8667 15.8333 39.8889 15.9777 39.8889 16.1333V22.0444C39.8889 22.4222 39.7611 22.7388 39.5056 22.9944C39.25 23.2499 38.9333 23.3777 38.5555 23.3777H36.7333C36.7333 24.8592 36.224 26.1036 35.2052 27.1111C34.1865 28.1185 32.9494 28.6222 31.4941 28.6222C30.0388 28.6222 28.8 28.1185 27.7778 27.1111C26.7555 26.1036 26.2444 24.8592 26.2444 23.3777H14.2C14.2 24.8592 13.6906 26.1036 12.6719 27.1111C11.6531 28.1185 10.4161 28.6222 8.96079 28.6222ZM8.95555 25.9555C9.66666 25.9555 10.2741 25.7036 10.7778 25.1999C11.2815 24.6962 11.5333 24.0888 11.5333 23.3777C11.5333 22.6666 11.2815 22.0592 10.7778 21.5555C10.2741 21.0518 9.66666 20.7999 8.95555 20.7999C8.24444 20.7999 7.63703 21.0518 7.13333 21.5555C6.62962 22.0592 6.37777 22.6666 6.37777 23.3777C6.37777 24.0888 6.62962 24.6962 7.13333 25.1999C7.63703 25.7036 8.24444 25.9555 8.95555 25.9555ZM31.4889 25.9555C32.2 25.9555 32.8074 25.7036 33.3111 25.1999C33.8148 24.6962 34.0667 24.0888 34.0667 23.3777C34.0667 22.6666 33.8148 22.0592 33.3111 21.5555C32.8074 21.0518 32.2 20.7999 31.4889 20.7999C30.7778 20.7999 30.1704 21.0518 29.6667 21.5555C29.163 22.0592 28.9111 22.6666 28.9111 23.3777C28.9111 24.0888 29.163 24.6962 29.6667 25.1999C30.1704 25.7036 30.7778 25.9555 31.4889 25.9555ZM29.1778 16.8888H37.4444L32.5111 10.3111H29.1778V16.8888Z" fill="white"/>
</svg>
