<svg width="32" height="28" viewBox="0 0 32 28" fill="none" xmlns="http://www.w3.org/2000/svg">
<path d="M2.60739 27.6174C2.265 27.6174 1.98187 27.5055 1.75801 27.2816C1.53414 27.0577 1.4222 26.7746 1.4222 26.4322C1.4222 26.0898 1.53414 25.8067 1.75801 25.5828C1.98187 25.359 2.265 25.247 2.60739 25.247H28.6815C29.0239 25.247 29.307 25.359 29.5308 25.5828C29.7547 25.8067 29.8667 26.0898 29.8667 26.4322C29.8667 26.7746 29.7547 27.0577 29.5308 27.2816C29.307 27.5055 29.0239 27.6174 28.6815 27.6174H2.60739ZM4.78023 19.1631C4.51685 19.2421 4.26006 19.2289 4.00986 19.1236C3.75965 19.0182 3.56871 18.847 3.43702 18.61L0.474056 13.5532C0.289694 13.2635 0.256772 12.987 0.37529 12.7236C0.493809 12.4602 0.724262 12.3022 1.06665 12.2495C1.19834 12.2232 1.34319 12.2363 1.50122 12.289C1.65924 12.3417 1.79093 12.4075 1.89628 12.4866L4.30616 14.6199L13.2346 12.21L7.30862 2.29396C7.07159 1.8989 7.0255 1.517 7.17035 1.14828C7.31521 0.779554 7.61151 0.529348 8.05924 0.39766C8.26994 0.344986 8.49381 0.344986 8.73085 0.39766C8.96788 0.450335 9.16541 0.542516 9.32344 0.674204L20.0296 10.3532L28.5629 8.06186C29.2741 7.85116 29.9193 7.97626 30.4988 8.43717C31.0782 8.89807 31.3679 9.51042 31.3679 10.2742C31.3679 10.7746 31.2164 11.2224 30.9136 11.6174C30.6107 12.0125 30.2222 12.2759 29.7481 12.4075L4.78023 19.1631Z" fill="white"/>
</svg>
