<svg width="37" height="40" viewBox="0 0 37 40" fill="none" xmlns="http://www.w3.org/2000/svg">
<path d="M4.15556 32.8889L0.866675 21.4667C0.748157 21.1111 0.770379 20.763 0.933342 20.4223C1.0963 20.0815 1.35556 19.8519 1.71112 19.7334L4.33334 18.8445V8.88892C4.33334 8.14818 4.5926 7.52595 5.11112 7.02225C5.62964 6.51855 6.25927 6.25188 7.00001 6.22225H13.6667V2.22225C13.6667 1.84447 13.7945 1.5278 14.05 1.27225C14.3056 1.01669 14.6222 0.888916 15 0.888916H22.1111C22.4889 0.888916 22.8056 1.01669 23.0611 1.27225C23.3167 1.5278 23.4445 1.84447 23.4445 2.22225V6.22225H30.1111C30.8445 6.22225 31.4722 6.48336 31.9945 7.00558C32.5167 7.5278 32.7778 8.15558 32.7778 8.88892V18.8889L35.4445 19.7334C35.7704 19.8519 36.0148 20.0741 36.1778 20.4C36.3408 20.726 36.363 21.0667 36.2445 21.4223L32.9556 32.8889C31.8 32.7704 30.7111 32.4593 29.6889 31.9556C28.6667 31.4519 27.7259 30.8445 26.8667 30.1334C26.6889 29.9852 26.5026 29.8815 26.3077 29.8223C26.1128 29.763 25.9128 29.7334 25.7077 29.7334C25.5026 29.7334 25.3062 29.7772 25.1185 29.865C24.9309 29.9527 24.758 30.0718 24.6 30.2222C23.7421 30.9952 22.8017 31.6329 21.7788 32.1353C20.7559 32.6377 19.6815 32.8889 18.5556 32.8889C17.4296 32.8889 16.3552 32.6377 15.3323 32.1353C14.3094 31.6329 13.369 30.9952 12.5111 30.2222C12.3497 30.0718 12.1732 29.9527 11.9816 29.865C11.7899 29.7772 11.5932 29.7334 11.3915 29.7334C11.1898 29.7334 10.9926 29.763 10.8 29.8223C10.6074 29.8815 10.4222 29.9852 10.2445 30.1334C9.38519 30.8445 8.44445 31.4519 7.42223 31.9556C6.40001 32.4593 5.31112 32.7704 4.15556 32.8889ZM2.11112 40C1.73334 40 1.41668 39.8714 1.16112 39.6143C0.905564 39.3573 0.777786 39.0389 0.777786 38.6589C0.777786 38.2789 0.905564 37.963 1.16112 37.7111C1.41668 37.4593 1.73334 37.3334 2.11112 37.3334H4.33334C5.40057 37.3334 6.45257 37.1926 7.48934 36.9111C8.52608 36.6297 9.51853 36.2223 10.4667 35.6889C10.6148 35.6297 10.7707 35.5778 10.9345 35.5334C11.0982 35.4889 11.2682 35.4667 11.4445 35.4667C11.6207 35.4667 11.7907 35.4889 11.9545 35.5334C12.1182 35.5778 12.2741 35.6297 12.4222 35.6889C13.3704 36.1926 14.3704 36.5778 15.4222 36.8445C16.4741 37.1111 17.5185 37.2445 18.5556 37.2445C19.5926 37.2445 20.637 37.1111 21.6889 36.8445C22.7407 36.5778 23.7407 36.1926 24.6889 35.6889C24.837 35.6297 24.993 35.5778 25.1567 35.5334C25.3204 35.4889 25.4904 35.4667 25.6667 35.4667C25.843 35.4667 26.013 35.4889 26.1767 35.5334C26.3404 35.5778 26.4963 35.6297 26.6445 35.6889C27.5926 36.2223 28.585 36.6297 29.6218 36.9111C30.6586 37.1926 31.7106 37.3334 32.7778 37.3334H35C35.3778 37.3334 35.6945 37.4619 35.95 37.7189C36.2056 37.976 36.3333 38.2945 36.3333 38.6745C36.3333 39.0545 36.2056 39.3704 35.95 39.6222C35.6945 39.8741 35.3778 40 35 40H32.7778C31.563 40 30.363 39.8445 29.1778 39.5334C27.9926 39.2223 26.8222 38.7704 25.6667 38.1778C24.5111 38.7704 23.3259 39.2223 22.1111 39.5334C20.8963 39.8445 19.7111 40 18.5556 40C17.4 40 16.2148 39.8445 15 39.5334C13.7852 39.2223 12.6 38.7704 11.4445 38.1778C10.2889 38.7704 9.11853 39.2223 7.93334 39.5334C6.74816 39.8445 5.54816 40 4.33334 40H2.11112ZM7.00001 18L17.7111 14.5334C17.9825 14.4445 18.2651 14.4 18.5591 14.4C18.853 14.4 19.1333 14.4445 19.4 14.5334L30.1111 18.0445V8.88892H7.00001V18Z" fill="white"/>
</svg>
