<?xml version="1.0" encoding="UTF-8"?>
<svg xmlns="http://www.w3.org/2000/svg" xmlns:xlink="http://www.w3.org/1999/xlink" width="217px" height="60px" viewBox="0 0 215 60" version="1.1">
<defs>
<filter id="alpha" filterUnits="objectBoundingBox" x="0%" y="0%" width="100%" height="100%">
  <feColorMatrix type="matrix" in="SourceGraphic" values="0 0 0 0 1 0 0 0 0 1 0 0 0 0 1 0 0 0 1 0"/>
</filter>
<mask id="mask0">
  <g filter="url(#alpha)">
<rect x="0" y="0" width="215" height="60" style="fill:rgb(0%,0%,0%);fill-opacity:0.980392;stroke:none;"/>
  </g>
</mask>
<clipPath id="clip1">
  <rect x="0" y="0" width="215" height="60"/>
</clipPath>
<g id="surface5" clip-path="url(#clip1)">
<path style=" stroke:none;fill-rule:evenodd;fill:rgb(99.607843%,100%,99.607843%);fill-opacity:1;" d="M 80.199219 -0.0390625 C 83.894531 -0.0390625 87.589844 -0.0390625 91.285156 -0.0390625 C 96.414062 1.414062 101.191406 3.621094 105.613281 6.582031 C 109.910156 9.582031 113.367188 13.351562 115.984375 17.894531 C 116.542969 18.949219 117.007812 20.046875 117.378906 21.183594 C 117.171875 21.90625 116.957031 22.625 116.738281 23.339844 C 116.6875 23.441406 116.636719 23.441406 116.585938 23.339844 C 112.761719 17.207031 108 11.898438 102.296875 7.414062 C 99.558594 5.371094 96.566406 3.785156 93.324219 2.648438 C 86.8125 0.707031 80.804688 1.714844 75.300781 5.675781 C 70.210938 9.667969 65.976562 14.421875 62.59375 19.9375 C 58.363281 26.984375 55.296875 34.527344 53.390625 42.558594 C 52.128906 47.683594 51.324219 52.878906 50.980469 58.144531 C 49.109375 58.246094 47.222656 58.296875 45.324219 58.296875 C 43.449219 58.285156 41.578125 58.273438 39.703125 58.261719 C 41.707031 47.710938 45.0625 37.609375 49.773438 27.957031 C 52.78125 21.945312 56.550781 16.472656 61.082031 11.539062 C 64.828125 7.53125 69.164062 4.339844 74.09375 1.96875 C 76.058594 1.0625 78.097656 0.394531 80.199219 -0.0390625 Z M 80.199219 -0.0390625 "/>
</g>
<mask id="mask1">
  <g filter="url(#alpha)">
<rect x="0" y="0" width="215" height="60" style="fill:rgb(0%,0%,0%);fill-opacity:0.945098;stroke:none;"/>
  </g>
</mask>
<clipPath id="clip2">
  <rect x="0" y="0" width="215" height="60"/>
</clipPath>
<g id="surface8" clip-path="url(#clip2)">
<path style=" stroke:none;fill-rule:evenodd;fill:rgb(99.607843%,100%,99.607843%);fill-opacity:1;" d="M 92.039062 3.519531 C 92.085938 3.46875 92.148438 3.445312 92.230469 3.441406 C 94.035156 3.9375 95.78125 4.59375 97.46875 5.410156 C 98.257812 6.777344 99.039062 8.152344 99.808594 9.535156 C 98.890625 9.675781 97.957031 9.75 97.019531 9.761719 C 95.878906 7.601562 94.445312 5.660156 92.71875 3.933594 C 92.515625 3.757812 92.289062 3.617188 92.039062 3.519531 Z M 92.039062 3.519531 "/>
</g>
<mask id="mask2">
  <g filter="url(#alpha)">
<rect x="0" y="0" width="215" height="60" style="fill:rgb(0%,0%,0%);fill-opacity:0.964706;stroke:none;"/>
  </g>
</mask>
<clipPath id="clip3">
  <rect x="0" y="0" width="215" height="60"/>
</clipPath>
<g id="surface11" clip-path="url(#clip3)">
<path style=" stroke:none;fill-rule:evenodd;fill:rgb(99.607843%,100%,99.607843%);fill-opacity:1;" d="M 67.457031 3.519531 C 67.511719 3.507812 67.5625 3.519531 67.605469 3.554688 C 61.957031 6.769531 56.679688 10.5 51.769531 14.753906 C 50.710938 15.714844 49.707031 16.722656 48.753906 17.78125 C 44.238281 19.316406 39.710938 20.804688 35.179688 22.246094 C 43.132812 14.65625 52.28125 8.929688 62.628906 5.070312 C 64.234375 4.511719 65.84375 3.996094 67.457031 3.519531 Z M 67.457031 3.519531 "/>
</g>
<mask id="mask3">
  <g filter="url(#alpha)">
<rect x="0" y="0" width="215" height="60" style="fill:rgb(0%,0%,0%);fill-opacity:0.984314;stroke:none;"/>
  </g>
</mask>
<clipPath id="clip4">
  <rect x="0" y="0" width="215" height="60"/>
</clipPath>
<g id="surface14" clip-path="url(#clip4)">
<path style=" stroke:none;fill-rule:evenodd;fill:rgb(99.607843%,100%,99.607843%);fill-opacity:1;" d="M 101.390625 10.933594 C 102.398438 10.921875 103.402344 10.933594 104.40625 10.972656 C 105.480469 12.007812 106.511719 13.082031 107.5 14.1875 C 94.175781 15.976562 81.082031 18.8125 68.210938 22.699219 C 66.332031 23.300781 64.457031 23.921875 62.59375 24.550781 C 62.554688 24.527344 62.515625 24.5 62.480469 24.476562 C 64.625 21.140625 66.761719 17.800781 68.890625 14.453125 C 76.578125 12.828125 84.34375 11.792969 92.191406 11.347656 C 95.269531 11.167969 98.335938 11.027344 101.390625 10.933594 Z M 101.390625 10.933594 "/>
</g>
<mask id="mask4">
  <g filter="url(#alpha)">
<rect x="0" y="0" width="215" height="60" style="fill:rgb(0%,0%,0%);fill-opacity:0.929412;stroke:none;"/>
  </g>
</mask>
<clipPath id="clip5">
  <rect x="0" y="0" width="215" height="60"/>
</clipPath>
<g id="surface17" clip-path="url(#clip5)">
<path style=" stroke:none;fill-rule:evenodd;fill:rgb(99.607843%,100%,99.607843%);fill-opacity:1;" d="M 111.875 11.007812 C 118.085938 11.300781 124.292969 11.613281 130.5 11.953125 C 125.070312 12.492188 119.640625 13.035156 114.210938 13.582031 C 113.914062 13.144531 113.601562 12.714844 113.269531 12.296875 C 112.785156 11.871094 112.320312 11.445312 111.875 11.007812 Z M 111.875 11.007812 "/>
</g>
<mask id="mask5">
  <g filter="url(#alpha)">
<rect x="0" y="0" width="215" height="60" style="fill:rgb(0%,0%,0%);fill-opacity:0.952941;stroke:none;"/>
  </g>
</mask>
<clipPath id="clip6">
  <rect x="0" y="0" width="215" height="60"/>
</clipPath>
<g id="surface20" clip-path="url(#clip6)">
<path style=" stroke:none;fill-rule:evenodd;fill:rgb(99.607843%,100%,99.607843%);fill-opacity:1;" d="M 101.769531 16.378906 C 101.914062 16.359375 102.027344 16.410156 102.109375 16.53125 C 102.839844 19.230469 103.179688 21.980469 103.125 24.78125 C 102.550781 24.863281 101.972656 24.9375 101.390625 25.007812 C 101.226562 22.542969 100.734375 20.148438 99.921875 17.820312 C 99.8125 17.511719 99.675781 17.222656 99.507812 16.949219 C 100.269531 16.757812 101.023438 16.566406 101.769531 16.378906 Z M 101.769531 16.378906 "/>
</g>
<mask id="mask6">
  <g filter="url(#alpha)">
<rect x="0" y="0" width="215" height="60" style="fill:rgb(0%,0%,0%);fill-opacity:0.937255;stroke:none;"/>
  </g>
</mask>
<clipPath id="clip7">
  <rect x="0" y="0" width="215" height="60"/>
</clipPath>
<g id="surface23" clip-path="url(#clip7)">
<path style=" stroke:none;fill-rule:evenodd;fill:rgb(99.607843%,100%,99.607843%);fill-opacity:1;" d="M 180.421875 16.609375 C 180.894531 16.585938 181.359375 16.609375 181.820312 16.683594 C 181.855469 17.867188 181.871094 19.054688 181.855469 20.238281 C 182.453125 20.261719 183.042969 20.238281 183.628906 20.164062 C 183.667969 19.128906 183.679688 18.097656 183.667969 17.0625 C 184.167969 17.0625 184.671875 17.0625 185.175781 17.0625 C 185.1875 18.171875 185.175781 19.28125 185.136719 20.390625 C 185.03125 20.875 184.742188 21.191406 184.269531 21.335938 C 183.464844 21.375 182.660156 21.386719 181.855469 21.375 C 181.855469 22.257812 181.855469 23.140625 181.855469 24.023438 C 182.433594 24.035156 183.011719 24.023438 183.589844 23.984375 C 183.652344 23.296875 183.691406 22.605469 183.703125 21.902344 C 184.164062 21.832031 184.628906 21.804688 185.097656 21.828125 C 185.113281 22.738281 185.097656 23.644531 185.0625 24.550781 C 184.949219 24.765625 184.785156 24.929688 184.570312 25.042969 C 182.085938 25.15625 179.597656 25.195312 177.105469 25.15625 C 177.105469 24.046875 177.105469 22.9375 177.105469 21.828125 C 177.609375 21.828125 178.109375 21.828125 178.613281 21.828125 C 178.613281 22.558594 178.613281 23.292969 178.613281 24.023438 C 179.21875 24.023438 179.820312 24.023438 180.421875 24.023438 C 180.421875 23.140625 180.421875 22.257812 180.421875 21.375 C 179.316406 21.375 178.210938 21.375 177.105469 21.375 C 177.105469 19.9375 177.105469 18.5 177.105469 17.0625 C 177.609375 17.0625 178.109375 17.0625 178.613281 17.0625 C 178.613281 18.121094 178.613281 19.179688 178.613281 20.238281 C 179.21875 20.238281 179.820312 20.238281 180.421875 20.238281 C 180.421875 19.027344 180.421875 17.820312 180.421875 16.609375 Z M 180.421875 16.609375 "/>
</g>
<mask id="mask7">
  <g filter="url(#alpha)">
<rect x="0" y="0" width="215" height="60" style="fill:rgb(0%,0%,0%);fill-opacity:0.937255;stroke:none;"/>
  </g>
</mask>
<clipPath id="clip8">
  <rect x="0" y="0" width="215" height="60"/>
</clipPath>
<g id="surface26" clip-path="url(#clip8)">
<path style=" stroke:none;fill-rule:evenodd;fill:rgb(99.607843%,100%,99.607843%);fill-opacity:1;" d="M 170.847656 16.757812 C 171.296875 16.757812 171.75 16.757812 172.203125 16.757812 C 172.203125 16.910156 172.203125 17.0625 172.203125 17.214844 C 172.78125 17.214844 173.359375 17.214844 173.9375 17.214844 C 173.921875 17.0625 173.945312 16.925781 174.011719 16.796875 C 174.441406 16.746094 174.867188 16.746094 175.296875 16.796875 C 175.363281 16.925781 175.390625 17.0625 175.371094 17.214844 C 175.523438 17.214844 175.671875 17.214844 175.824219 17.214844 C 175.824219 17.640625 175.824219 18.070312 175.824219 18.5 C 175.671875 18.5 175.523438 18.5 175.371094 18.5 C 175.371094 18.980469 175.371094 19.457031 175.371094 19.9375 C 175.523438 19.9375 175.671875 19.9375 175.824219 19.9375 C 175.824219 20.339844 175.824219 20.742188 175.824219 21.148438 C 175.671875 21.148438 175.523438 21.148438 175.371094 21.148438 C 175.371094 21.980469 175.371094 22.8125 175.371094 23.644531 C 174.894531 23.644531 174.414062 23.644531 173.9375 23.644531 C 173.9375 22.8125 173.9375 21.980469 173.9375 21.148438 C 173.359375 21.148438 172.78125 21.148438 172.203125 21.148438 C 172.238281 21.9375 172.199219 22.71875 172.089844 23.492188 C 171.980469 23.597656 171.855469 23.671875 171.714844 23.71875 C 171.15625 23.644531 170.589844 23.621094 170.015625 23.644531 C 170.015625 23.292969 170.015625 22.9375 170.015625 22.585938 C 170.265625 22.605469 170.503906 22.582031 170.734375 22.507812 C 170.769531 22.054688 170.785156 21.601562 170.769531 21.148438 C 170.542969 21.148438 170.316406 21.148438 170.09375 21.148438 C 170.09375 20.742188 170.09375 20.339844 170.09375 19.9375 C 170.316406 19.9375 170.542969 19.9375 170.769531 19.9375 C 170.769531 19.457031 170.769531 18.980469 170.769531 18.5 C 170.542969 18.5 170.316406 18.5 170.09375 18.5 C 170.09375 18.070312 170.09375 17.640625 170.09375 17.214844 C 170.316406 17.214844 170.542969 17.214844 170.769531 17.214844 C 170.757812 17.050781 170.78125 16.902344 170.847656 16.757812 Z M 172.203125 18.5 C 172.78125 18.5 173.359375 18.5 173.9375 18.5 C 173.9375 18.980469 173.9375 19.457031 173.9375 19.9375 C 173.359375 19.9375 172.78125 19.9375 172.203125 19.9375 C 172.203125 19.457031 172.203125 18.980469 172.203125 18.5 Z M 172.203125 18.5 "/>
</g>
<mask id="mask8">
  <g filter="url(#alpha)">
<rect x="0" y="0" width="215" height="60" style="fill:rgb(0%,0%,0%);fill-opacity:0.933333;stroke:none;"/>
  </g>
</mask>
<clipPath id="clip9">
  <rect x="0" y="0" width="215" height="60"/>
</clipPath>
<g id="surface29" clip-path="url(#clip9)">
<path style=" stroke:none;fill-rule:evenodd;fill:rgb(99.607843%,100%,99.607843%);fill-opacity:1;" d="M 205.234375 16.757812 C 207.992188 16.734375 210.746094 16.757812 213.492188 16.835938 C 213.542969 19.382812 213.542969 21.929688 213.492188 24.476562 C 213.445312 24.707031 213.332031 24.894531 213.152344 25.042969 C 212.632812 25.148438 212.101562 25.1875 211.570312 25.15625 C 211.582031 24.804688 211.570312 24.449219 211.53125 24.097656 C 211.519531 24.4375 211.355469 24.652344 211.039062 24.742188 C 209.128906 24.78125 207.21875 24.792969 205.308594 24.78125 C 205.308594 23.292969 205.308594 21.804688 205.308594 20.316406 C 207.394531 20.316406 209.480469 20.316406 211.570312 20.316406 C 211.570312 21.550781 211.570312 22.785156 211.570312 24.023438 C 211.71875 24.023438 211.871094 24.023438 212.019531 24.023438 C 212.019531 22.003906 212.019531 19.988281 212.019531 17.96875 C 209.757812 17.96875 207.496094 17.96875 205.234375 17.96875 C 205.234375 17.566406 205.234375 17.164062 205.234375 16.757812 Z M 206.816406 21.527344 C 207.925781 21.527344 209.03125 21.527344 210.136719 21.527344 C 210.136719 22.230469 210.136719 22.9375 210.136719 23.644531 C 209.03125 23.644531 207.925781 23.644531 206.816406 23.644531 C 206.816406 22.9375 206.816406 22.230469 206.816406 21.527344 Z M 206.816406 21.527344 "/>
</g>
<mask id="mask9">
  <g filter="url(#alpha)">
<rect x="0" y="0" width="215" height="60" style="fill:rgb(0%,0%,0%);fill-opacity:0.921569;stroke:none;"/>
  </g>
</mask>
<clipPath id="clip10">
  <rect x="0" y="0" width="215" height="60"/>
</clipPath>
<g id="surface32" clip-path="url(#clip10)">
<path style=" stroke:none;fill-rule:evenodd;fill:rgb(99.607843%,100%,99.607843%);fill-opacity:1;" d="M 133.742188 16.835938 C 134.347656 16.820312 134.949219 16.835938 135.554688 16.871094 C 135.488281 16.949219 135.464844 17.039062 135.476562 17.136719 C 136.484375 17.136719 137.488281 17.136719 138.496094 17.136719 C 138.507812 18.121094 138.496094 19.105469 138.457031 20.089844 C 138.394531 20.300781 138.253906 20.441406 138.042969 20.503906 C 136.742188 20.566406 135.445312 20.554688 134.15625 20.464844 C 134.097656 20.121094 134.109375 19.777344 134.195312 19.445312 C 135.175781 19.433594 136.15625 19.394531 137.136719 19.332031 C 137.207031 19.007812 137.234375 18.679688 137.210938 18.347656 C 135.578125 18.347656 133.945312 18.347656 132.3125 18.347656 C 132.3125 19.230469 132.3125 20.113281 132.3125 20.996094 C 134.445312 20.996094 136.585938 20.996094 138.71875 20.996094 C 138.757812 22.265625 138.71875 23.527344 138.609375 24.78125 C 138.519531 24.882812 138.40625 24.949219 138.269531 24.96875 C 137.289062 25.007812 136.308594 25.019531 135.328125 25.007812 C 135.328125 24.703125 135.328125 24.402344 135.328125 24.097656 C 135.980469 24.109375 136.632812 24.097656 137.289062 24.058594 C 137.363281 23.449219 137.386719 22.832031 137.363281 22.207031 C 135.273438 22.242188 133.183594 22.203125 131.105469 22.09375 C 131.011719 22.023438 130.949219 21.9375 130.914062 21.828125 C 130.878906 20.265625 130.863281 18.703125 130.878906 17.136719 C 131.808594 17.136719 132.738281 17.136719 133.667969 17.136719 C 133.664062 17.027344 133.6875 16.925781 133.742188 16.835938 Z M 133.742188 16.835938 "/>
</g>
<mask id="mask10">
  <g filter="url(#alpha)">
<rect x="0" y="0" width="215" height="60" style="fill:rgb(0%,0%,0%);fill-opacity:0.901961;stroke:none;"/>
  </g>
</mask>
<clipPath id="clip11">
  <rect x="0" y="0" width="215" height="60"/>
</clipPath>
<g id="surface35" clip-path="url(#clip11)">
<path style=" stroke:none;fill-rule:evenodd;fill:rgb(99.607843%,100%,99.607843%);fill-opacity:1;" d="M 167.90625 16.835938 C 168.433594 16.820312 168.960938 16.835938 169.488281 16.871094 C 169.5625 17.382812 169.585938 17.898438 169.5625 18.421875 C 169.011719 18.421875 168.457031 18.421875 167.90625 18.421875 C 167.90625 17.894531 167.90625 17.363281 167.90625 16.835938 Z M 167.90625 16.835938 "/>
</g>
<mask id="mask11">
  <g filter="url(#alpha)">
<rect x="0" y="0" width="215" height="60" style="fill:rgb(0%,0%,0%);fill-opacity:0.905882;stroke:none;"/>
  </g>
</mask>
<clipPath id="clip12">
  <rect x="0" y="0" width="215" height="60"/>
</clipPath>
<g id="surface38" clip-path="url(#clip12)">
<path style=" stroke:none;fill-rule:evenodd;fill:rgb(99.607843%,100%,99.607843%);fill-opacity:1;" d="M 148.675781 16.910156 C 149.101562 16.898438 149.53125 16.910156 149.957031 16.949219 C 150.070312 17.332031 150.171875 17.726562 150.257812 18.121094 C 150.53125 18.195312 150.808594 18.222656 151.089844 18.195312 C 151.089844 18.574219 151.089844 18.953125 151.089844 19.332031 C 150.609375 19.3125 150.128906 19.335938 149.65625 19.40625 C 149.273438 19.339844 149.0625 19.113281 149.015625 18.726562 C 148.867188 18.125 148.753906 17.519531 148.675781 16.910156 Z M 148.675781 16.910156 "/>
</g>
<mask id="mask12">
  <g filter="url(#alpha)">
<rect x="0" y="0" width="215" height="60" style="fill:rgb(0%,0%,0%);fill-opacity:0.941176;stroke:none;"/>
  </g>
</mask>
<clipPath id="clip13">
  <rect x="0" y="0" width="215" height="60"/>
</clipPath>
<g id="surface41" clip-path="url(#clip13)">
<path style=" stroke:none;fill-rule:evenodd;fill:rgb(99.607843%,100%,99.607843%);fill-opacity:1;" d="M 158.175781 16.910156 C 158.679688 16.910156 159.183594 16.910156 159.683594 16.910156 C 159.75 17.320312 159.835938 17.722656 159.949219 18.121094 C 160.203125 18.195312 160.46875 18.21875 160.742188 18.195312 C 160.742188 17.820312 160.742188 17.441406 160.742188 17.0625 C 162.675781 17.0625 164.613281 17.0625 166.546875 17.0625 C 166.546875 17.464844 166.546875 17.867188 166.546875 18.273438 C 166.421875 18.273438 166.296875 18.273438 166.171875 18.273438 C 166.183594 20.417969 166.171875 22.558594 166.132812 24.703125 C 166.09375 24.96875 165.957031 25.160156 165.71875 25.269531 C 165.273438 25.375 164.820312 25.410156 164.359375 25.382812 C 164.375 25.105469 164.359375 24.828125 164.324219 24.550781 C 164.230469 24.769531 164.066406 24.910156 163.832031 24.96875 C 162.902344 25.007812 161.972656 25.019531 161.042969 25.007812 C 161.042969 22.914062 161.042969 20.820312 161.042969 18.726562 C 162.171875 18.726562 163.304688 18.726562 164.4375 18.726562 C 164.4375 20.566406 164.4375 22.410156 164.4375 24.25 C 164.644531 24.289062 164.78125 24.214844 164.851562 24.023438 C 164.886719 22.105469 164.902344 20.1875 164.886719 18.273438 C 163.507812 18.273438 162.125 18.273438 160.742188 18.273438 C 160.761719 18.644531 160.738281 19.011719 160.664062 19.371094 C 160.003906 19.441406 159.351562 19.414062 158.703125 19.292969 C 158.566406 19.15625 158.480469 18.992188 158.441406 18.800781 C 158.34375 18.21875 158.230469 17.636719 158.101562 17.0625 C 158.128906 17.011719 158.15625 16.960938 158.175781 16.910156 Z M 162.324219 19.859375 C 162.574219 19.859375 162.828125 19.859375 163.078125 19.859375 C 163.089844 21.148438 163.078125 22.433594 163.042969 23.71875 C 162.808594 23.792969 162.570312 23.816406 162.324219 23.796875 C 162.324219 22.484375 162.324219 21.171875 162.324219 19.859375 Z M 162.324219 19.859375 "/>
</g>
<mask id="mask13">
  <g filter="url(#alpha)">
<rect x="0" y="0" width="215" height="60" style="fill:rgb(0%,0%,0%);fill-opacity:0.929412;stroke:none;"/>
  </g>
</mask>
<clipPath id="clip14">
  <rect x="0" y="0" width="215" height="60"/>
</clipPath>
<g id="surface44" clip-path="url(#clip14)">
<path style=" stroke:none;fill-rule:evenodd;fill:rgb(99.607843%,100%,99.607843%);fill-opacity:1;" d="M 196.789062 16.910156 C 198.574219 16.898438 200.359375 16.910156 202.140625 16.949219 C 202.585938 17.519531 203 18.113281 203.386719 18.726562 C 203.609375 18.898438 203.859375 19 204.140625 19.027344 C 204.179688 19.457031 204.191406 19.886719 204.179688 20.316406 C 203.726562 20.328125 203.273438 20.316406 202.820312 20.277344 C 202.71875 20.226562 202.621094 20.175781 202.519531 20.125 C 202.066406 19.519531 201.613281 18.914062 201.160156 18.308594 C 199.703125 18.273438 198.246094 18.257812 196.789062 18.273438 C 196.789062 17.820312 196.789062 17.363281 196.789062 16.910156 Z M 196.789062 16.910156 "/>
</g>
<mask id="mask14">
  <g filter="url(#alpha)">
<rect x="0" y="0" width="215" height="60" style="fill:rgb(0%,0%,0%);fill-opacity:0.905882;stroke:none;"/>
  </g>
</mask>
<clipPath id="clip15">
  <rect x="0" y="0" width="215" height="60"/>
</clipPath>
<g id="surface47" clip-path="url(#clip15)">
<path style=" stroke:none;fill-rule:evenodd;fill:rgb(99.607843%,100%,99.607843%);fill-opacity:1;" d="M 126.957031 19.027344 C 126.34375 19.0625 125.742188 19.023438 125.144531 18.914062 C 125.03125 18.796875 124.941406 18.65625 124.882812 18.5 C 124.769531 18 124.683594 17.492188 124.617188 16.984375 C 125.019531 16.984375 125.421875 16.984375 125.824219 16.984375 C 125.875 17.332031 125.953125 17.675781 126.050781 18.007812 C 126.351562 18.046875 126.652344 18.058594 126.957031 18.046875 C 126.957031 18.375 126.957031 18.699219 126.957031 19.027344 Z M 126.957031 19.027344 "/>
</g>
<mask id="mask15">
  <g filter="url(#alpha)">
<rect x="0" y="0" width="215" height="60" style="fill:rgb(0%,0%,0%);fill-opacity:0.929412;stroke:none;"/>
  </g>
</mask>
<clipPath id="clip16">
  <rect x="0" y="0" width="215" height="60"/>
</clipPath>
<g id="surface50" clip-path="url(#clip16)">
<path style=" stroke:none;fill-rule:evenodd;fill:rgb(99.607843%,100%,99.607843%);fill-opacity:1;" d="M 142.867188 16.984375 C 143.320312 16.972656 143.773438 16.984375 144.226562 17.023438 C 144.296875 17.179688 144.320312 17.34375 144.300781 17.515625 C 145.382812 17.503906 146.464844 17.515625 147.542969 17.554688 C 147.617188 17.886719 147.640625 18.226562 147.621094 18.574219 C 146.511719 18.574219 145.40625 18.574219 144.300781 18.574219 C 144.300781 18.75 144.300781 18.929688 144.300781 19.105469 C 145.355469 19.105469 146.414062 19.105469 147.46875 19.105469 C 147.480469 20.84375 147.46875 22.585938 147.429688 24.324219 C 147.34375 24.515625 147.203125 24.652344 147.015625 24.742188 C 146.316406 24.84375 145.613281 24.882812 144.90625 24.855469 C 144.90625 24.5 144.90625 24.148438 144.90625 23.796875 C 145.28125 23.796875 145.660156 23.796875 146.035156 23.796875 C 146.035156 22.585938 146.035156 21.375 146.035156 20.164062 C 145.433594 20.164062 144.828125 20.164062 144.226562 20.164062 C 144.226562 21.804688 144.226562 23.441406 144.226562 25.082031 C 143.773438 25.082031 143.320312 25.082031 142.867188 25.082031 C 142.867188 23.441406 142.867188 21.804688 142.867188 20.164062 C 142.214844 20.164062 141.5625 20.164062 140.90625 20.164062 C 140.933594 21.726562 140.90625 23.292969 140.832031 24.855469 C 140.433594 24.78125 140.03125 24.757812 139.625 24.78125 C 139.625 22.886719 139.625 20.996094 139.625 19.105469 C 140.707031 19.105469 141.789062 19.105469 142.867188 19.105469 C 142.867188 18.929688 142.867188 18.75 142.867188 18.574219 C 141.761719 18.574219 140.65625 18.574219 139.550781 18.574219 C 139.550781 18.222656 139.550781 17.867188 139.550781 17.515625 C 140.65625 17.515625 141.761719 17.515625 142.867188 17.515625 C 142.867188 17.339844 142.867188 17.164062 142.867188 16.984375 Z M 142.867188 16.984375 "/>
</g>
<mask id="mask16">
  <g filter="url(#alpha)">
<rect x="0" y="0" width="215" height="60" style="fill:rgb(0%,0%,0%);fill-opacity:0.937255;stroke:none;"/>
  </g>
</mask>
<clipPath id="clip17">
  <rect x="0" y="0" width="215" height="60"/>
</clipPath>
<g id="surface53" clip-path="url(#clip17)">
<path style=" stroke:none;fill-rule:evenodd;fill:rgb(99.607843%,100%,99.607843%);fill-opacity:1;" d="M 151.3125 16.984375 C 153.226562 16.984375 155.136719 16.984375 157.046875 16.984375 C 157.046875 17.566406 157.046875 18.144531 157.046875 18.726562 C 156.570312 18.726562 156.089844 18.726562 155.613281 18.726562 C 155.613281 18.523438 155.613281 18.324219 155.613281 18.121094 C 154.632812 18.121094 153.652344 18.121094 152.671875 18.121094 C 152.671875 18.324219 152.671875 18.523438 152.671875 18.726562 C 153.152344 18.703125 153.628906 18.726562 154.105469 18.800781 C 154.070312 18.875 154.019531 18.9375 153.953125 18.992188 C 154.984375 19.027344 156.015625 19.042969 157.046875 19.027344 C 157.046875 19.457031 157.046875 19.886719 157.046875 20.316406 C 155.839844 20.300781 154.632812 20.316406 153.425781 20.351562 C 153.226562 20.679688 153.023438 21.007812 152.824219 21.335938 C 153.074219 21.375 153.324219 21.386719 153.578125 21.375 C 153.578125 21.148438 153.578125 20.921875 153.578125 20.695312 C 154.105469 20.695312 154.632812 20.695312 155.160156 20.695312 C 155.160156 20.921875 155.160156 21.148438 155.160156 21.375 C 155.789062 21.375 156.417969 21.375 157.046875 21.375 C 157.046875 21.753906 157.046875 22.132812 157.046875 22.507812 C 156.390625 22.507812 155.738281 22.507812 155.085938 22.507812 C 155.085938 22.761719 155.085938 23.015625 155.085938 23.265625 C 155.714844 23.265625 156.34375 23.265625 156.96875 23.265625 C 156.96875 23.644531 156.96875 24.023438 156.96875 24.402344 C 156.34375 24.402344 155.714844 24.402344 155.085938 24.402344 C 155.085938 24.730469 155.085938 25.058594 155.085938 25.382812 C 154.558594 25.382812 154.027344 25.382812 153.5 25.382812 C 153.5 25.058594 153.5 24.730469 153.5 24.402344 C 152.746094 24.402344 151.992188 24.402344 151.238281 24.402344 C 151.238281 24.023438 151.238281 23.644531 151.238281 23.265625 C 151.992188 23.265625 152.746094 23.265625 153.5 23.265625 C 153.5 23.015625 153.5 22.761719 153.5 22.507812 C 152.746094 22.507812 151.992188 22.507812 151.238281 22.507812 C 151.226562 22.15625 151.238281 21.800781 151.277344 21.449219 C 151.480469 21.078125 151.695312 20.710938 151.917969 20.351562 C 151.695312 20.335938 151.484375 20.296875 151.277344 20.238281 C 151.238281 19.835938 151.226562 19.433594 151.238281 19.027344 C 151.644531 19.054688 152.046875 19.027344 152.445312 18.953125 C 152.480469 18.878906 152.53125 18.816406 152.597656 18.765625 C 152.167969 18.726562 151.742188 18.714844 151.3125 18.726562 C 151.3125 18.144531 151.3125 17.566406 151.3125 16.984375 Z M 151.3125 16.984375 "/>
</g>
<mask id="mask17">
  <g filter="url(#alpha)">
<rect x="0" y="0" width="215" height="60" style="fill:rgb(0%,0%,0%);fill-opacity:0.941176;stroke:none;"/>
  </g>
</mask>
<clipPath id="clip18">
  <rect x="0" y="0" width="215" height="60"/>
</clipPath>
<g id="surface56" clip-path="url(#clip18)">
<path style=" stroke:none;fill-rule:evenodd;fill:rgb(99.607843%,100%,99.607843%);fill-opacity:1;" d="M 186.457031 16.984375 C 189.144531 16.984375 191.835938 16.984375 194.527344 16.984375 C 194.539062 19.433594 194.527344 21.878906 194.488281 24.324219 C 194.375 24.742188 194.109375 25.007812 193.695312 25.121094 C 191.28125 25.15625 188.871094 25.171875 186.457031 25.15625 C 186.457031 22.433594 186.457031 19.710938 186.457031 16.984375 Z M 187.964844 18.347656 C 189.675781 18.347656 191.382812 18.347656 193.09375 18.347656 C 193.128906 20.171875 193.089844 21.988281 192.980469 23.796875 C 192.941406 23.832031 192.902344 23.871094 192.867188 23.910156 C 191.234375 23.945312 189.597656 23.960938 187.964844 23.945312 C 187.964844 22.082031 187.964844 20.214844 187.964844 18.347656 Z M 187.964844 18.347656 "/>
</g>
<mask id="mask18">
  <g filter="url(#alpha)">
<rect x="0" y="0" width="215" height="60" style="fill:rgb(0%,0%,0%);fill-opacity:0.929412;stroke:none;"/>
  </g>
</mask>
<clipPath id="clip19">
  <rect x="0" y="0" width="215" height="60"/>
</clipPath>
<g id="surface59" clip-path="url(#clip19)">
<path style=" stroke:none;fill-rule:evenodd;fill:rgb(99.607843%,100%,99.607843%);fill-opacity:1;" d="M 126.957031 19.027344 C 127.367188 18.449219 127.769531 17.855469 128.164062 17.25 C 128.667969 17.1875 129.171875 17.199219 129.671875 17.289062 C 128.574219 18.949219 127.46875 20.597656 126.351562 22.246094 C 126.726562 22.84375 127.128906 23.425781 127.558594 23.984375 C 128.238281 24.023438 128.917969 24.035156 129.597656 24.023438 C 129.597656 24.351562 129.597656 24.679688 129.597656 25.007812 C 128.664062 25.019531 127.734375 25.007812 126.804688 24.96875 C 126.308594 24.496094 125.894531 23.953125 125.5625 23.339844 C 125.171875 23.90625 124.757812 24.445312 124.316406 24.96875 C 123.441406 25.078125 122.5625 25.113281 121.675781 25.082031 C 121.675781 24.730469 121.675781 24.375 121.675781 24.023438 C 122.3125 24.054688 122.941406 24.019531 123.5625 23.910156 C 123.996094 23.347656 124.398438 22.769531 124.769531 22.167969 C 123.769531 20.535156 122.738281 18.921875 121.675781 17.328125 C 121.703125 17.300781 121.726562 17.277344 121.753906 17.25 C 122.230469 17.199219 122.707031 17.199219 123.1875 17.25 C 123.992188 18.507812 124.808594 19.753906 125.636719 20.996094 C 126.097656 20.351562 126.535156 19.695312 126.957031 19.027344 Z M 126.957031 19.027344 "/>
</g>
<mask id="mask19">
  <g filter="url(#alpha)">
<rect x="0" y="0" width="215" height="60" style="fill:rgb(0%,0%,0%);fill-opacity:0.988235;stroke:none;"/>
  </g>
</mask>
<clipPath id="clip20">
  <rect x="0" y="0" width="215" height="60"/>
</clipPath>
<g id="surface62" clip-path="url(#clip20)">
<path style=" stroke:none;fill-rule:evenodd;fill:rgb(99.607843%,100%,99.607843%);fill-opacity:1;" d="M -0.0390625 58.75 C -0.0390625 53.078125 -0.0390625 47.402344 -0.0390625 41.726562 C 8 36.636719 16.417969 32.210938 25.226562 28.449219 C 34.519531 24.460938 44.023438 21.019531 53.730469 18.121094 C 53.757812 18.160156 53.78125 18.195312 53.804688 18.234375 C 51.542969 22.292969 49.28125 26.355469 47.019531 30.417969 C 35.765625 35.253906 25.007812 40.953125 14.742188 47.515625 C 9.546875 50.902344 4.617188 54.648438 -0.0390625 58.75 Z M -0.0390625 58.75 "/>
</g>
<mask id="mask20">
  <g filter="url(#alpha)">
<rect x="0" y="0" width="215" height="60" style="fill:rgb(0%,0%,0%);fill-opacity:0.921569;stroke:none;"/>
  </g>
</mask>
<clipPath id="clip21">
  <rect x="0" y="0" width="215" height="60"/>
</clipPath>
<g id="surface65" clip-path="url(#clip21)">
<path style=" stroke:none;fill-rule:evenodd;fill:rgb(99.607843%,100%,99.607843%);fill-opacity:1;" d="M 197.164062 18.652344 C 197.746094 18.625 198.324219 18.652344 198.898438 18.726562 C 198.511719 19.457031 198.121094 20.1875 197.730469 20.921875 C 197.601562 21.082031 197.4375 21.195312 197.242188 21.261719 C 196.71875 21.367188 196.191406 21.402344 195.65625 21.375 C 195.65625 20.921875 195.65625 20.464844 195.65625 20.011719 C 195.882812 20.023438 196.109375 20.011719 196.335938 19.976562 C 196.660156 19.5625 196.9375 19.121094 197.164062 18.652344 Z M 197.164062 18.652344 "/>
</g>
<mask id="mask21">
  <g filter="url(#alpha)">
<rect x="0" y="0" width="215" height="60" style="fill:rgb(0%,0%,0%);fill-opacity:0.960784;stroke:none;"/>
  </g>
</mask>
<clipPath id="clip22">
  <rect x="0" y="0" width="215" height="60"/>
</clipPath>
<g id="surface68" clip-path="url(#clip22)">
<path style=" stroke:none;fill-rule:evenodd;fill:rgb(99.607843%,100%,99.607843%);fill-opacity:1;" d="M 205.308594 18.652344 C 207.394531 18.652344 209.480469 18.652344 211.570312 18.652344 C 211.570312 19.027344 211.570312 19.40625 211.570312 19.785156 C 209.480469 19.785156 207.394531 19.785156 205.308594 19.785156 C 205.308594 19.40625 205.308594 19.027344 205.308594 18.652344 Z M 205.308594 18.652344 "/>
</g>
<mask id="mask22">
  <g filter="url(#alpha)">
<rect x="0" y="0" width="215" height="60" style="fill:rgb(0%,0%,0%);fill-opacity:0.92549;stroke:none;"/>
  </g>
</mask>
<clipPath id="clip23">
  <rect x="0" y="0" width="215" height="60"/>
</clipPath>
<g id="surface71" clip-path="url(#clip23)">
<path style=" stroke:none;fill-rule:evenodd;fill:rgb(99.607843%,100%,99.607843%);fill-opacity:1;" d="M 167.453125 19.257812 C 168.148438 19.230469 168.839844 19.257812 169.527344 19.332031 C 169.550781 20.769531 169.578125 22.207031 169.601562 23.644531 C 169.777344 23.890625 170.015625 24.03125 170.316406 24.058594 C 172.152344 24.097656 173.988281 24.109375 175.824219 24.097656 C 175.824219 24.453125 175.824219 24.804688 175.824219 25.15625 C 173.789062 25.171875 171.75 25.15625 169.714844 25.121094 C 169.539062 25.03125 169.363281 24.941406 169.1875 24.855469 C 169.078125 25.023438 168.929688 25.136719 168.734375 25.195312 C 168.308594 25.234375 167.882812 25.246094 167.453125 25.234375 C 167.453125 24.855469 167.453125 24.476562 167.453125 24.097656 C 167.667969 24.132812 167.855469 24.082031 168.019531 23.945312 C 168.054688 22.835938 168.070312 21.726562 168.054688 20.617188 C 167.855469 20.617188 167.652344 20.617188 167.453125 20.617188 C 167.453125 20.164062 167.453125 19.710938 167.453125 19.257812 Z M 167.453125 19.257812 "/>
</g>
<mask id="mask23">
  <g filter="url(#alpha)">
<rect x="0" y="0" width="215" height="60" style="fill:rgb(0%,0%,0%);fill-opacity:0.913725;stroke:none;"/>
  </g>
</mask>
<clipPath id="clip24">
  <rect x="0" y="0" width="215" height="60"/>
</clipPath>
<g id="surface74" clip-path="url(#clip24)">
<path style=" stroke:none;fill-rule:evenodd;fill:rgb(99.607843%,100%,99.607843%);fill-opacity:1;" d="M 201.914062 23.644531 C 201.9375 24.09375 201.914062 24.535156 201.839844 24.96875 C 199.914062 25.03125 197.988281 25.019531 196.070312 24.929688 C 196.019531 24.5 196.019531 24.074219 196.070312 23.644531 C 196.347656 23.59375 196.625 23.542969 196.902344 23.492188 C 197.679688 22.179688 198.460938 20.871094 199.238281 19.558594 C 199.824219 19.484375 200.414062 19.460938 201.011719 19.484375 C 200.964844 19.722656 200.878906 19.953125 200.746094 20.164062 C 200.082031 21.285156 199.414062 22.410156 198.75 23.53125 C 199.808594 23.542969 200.867188 23.582031 201.914062 23.644531 Z M 201.914062 23.644531 "/>
</g>
<mask id="mask24">
  <g filter="url(#alpha)">
<rect x="0" y="0" width="215" height="60" style="fill:rgb(0%,0%,0%);fill-opacity:0.882353;stroke:none;"/>
  </g>
</mask>
<clipPath id="clip25">
  <rect x="0" y="0" width="215" height="60"/>
</clipPath>
<g id="surface77" clip-path="url(#clip25)">
<path style=" stroke:none;fill-rule:evenodd;fill:rgb(99.607843%,100%,99.607843%);fill-opacity:1;" d="M 148.675781 19.710938 C 149.078125 19.699219 149.480469 19.710938 149.882812 19.746094 C 149.984375 20.132812 150.109375 20.511719 150.257812 20.882812 C 150.535156 20.921875 150.8125 20.933594 151.089844 20.921875 C 151.109375 21.292969 151.085938 21.660156 151.011719 22.019531 C 150.460938 22.066406 149.90625 22.066406 149.355469 22.019531 C 149.1875 21.96875 149.097656 21.855469 149.089844 21.675781 C 148.90625 21.03125 148.769531 20.375 148.675781 19.710938 Z M 148.675781 19.710938 "/>
</g>
<mask id="mask25">
  <g filter="url(#alpha)">
<rect x="0" y="0" width="215" height="60" style="fill:rgb(0%,0%,0%);fill-opacity:0.905882;stroke:none;"/>
  </g>
</mask>
<clipPath id="clip26">
  <rect x="0" y="0" width="215" height="60"/>
</clipPath>
<g id="surface80" clip-path="url(#clip26)">
<path style=" stroke:none;fill-rule:evenodd;fill:rgb(99.607843%,100%,99.607843%);fill-opacity:1;" d="M 158.101562 19.710938 C 158.605469 19.683594 159.109375 19.710938 159.609375 19.785156 C 159.683594 20.152344 159.796875 20.503906 159.949219 20.84375 C 160.203125 20.917969 160.46875 20.941406 160.742188 20.921875 C 160.742188 21.300781 160.742188 21.675781 160.742188 22.054688 C 160.054688 22.089844 159.375 22.050781 158.703125 21.941406 C 158.589844 21.824219 158.5 21.683594 158.441406 21.527344 C 158.292969 20.925781 158.179688 20.320312 158.101562 19.710938 Z M 158.101562 19.710938 "/>
</g>
<mask id="mask26">
  <g filter="url(#alpha)">
<rect x="0" y="0" width="215" height="60" style="fill:rgb(0%,0%,0%);fill-opacity:0.92549;stroke:none;"/>
  </g>
</mask>
<clipPath id="clip27">
  <rect x="0" y="0" width="215" height="60"/>
</clipPath>
<g id="surface83" clip-path="url(#clip27)">
<path style=" stroke:none;fill-rule:evenodd;fill:rgb(99.607843%,100%,99.607843%);fill-opacity:1;" d="M 201.914062 23.644531 C 201.535156 23.003906 201.132812 22.375 200.710938 21.753906 C 201.285156 21.664062 201.863281 21.652344 202.445312 21.714844 C 202.882812 22.359375 203.324219 23 203.761719 23.644531 C 203.871094 23.769531 204.011719 23.820312 204.179688 23.796875 C 204.179688 24.199219 204.179688 24.601562 204.179688 25.007812 C 203.675781 25.046875 203.195312 24.957031 202.746094 24.742188 C 202.476562 24.363281 202.199219 24 201.914062 23.644531 Z M 201.914062 23.644531 "/>
</g>
<mask id="mask27">
  <g filter="url(#alpha)">
<rect x="0" y="0" width="215" height="60" style="fill:rgb(0%,0%,0%);fill-opacity:0.921569;stroke:none;"/>
  </g>
</mask>
<clipPath id="clip28">
  <rect x="0" y="0" width="215" height="60"/>
</clipPath>
<g id="surface86" clip-path="url(#clip28)">
<path style=" stroke:none;fill-rule:evenodd;fill:rgb(99.607843%,100%,99.607843%);fill-opacity:1;" d="M 159.234375 22.359375 C 159.710938 22.359375 160.1875 22.359375 160.664062 22.359375 C 160.464844 23.25 160.226562 24.132812 159.949219 25.007812 C 159.859375 25.125 159.746094 25.210938 159.609375 25.269531 C 159.082031 25.308594 158.554688 25.320312 158.027344 25.308594 C 158.027344 24.957031 158.027344 24.601562 158.027344 24.25 C 158.257812 24.273438 158.484375 24.25 158.703125 24.175781 C 158.90625 23.574219 159.082031 22.96875 159.234375 22.359375 Z M 159.234375 22.359375 "/>
</g>
<mask id="mask28">
  <g filter="url(#alpha)">
<rect x="0" y="0" width="215" height="60" style="fill:rgb(0%,0%,0%);fill-opacity:0.909804;stroke:none;"/>
  </g>
</mask>
<clipPath id="clip29">
  <rect x="0" y="0" width="215" height="60"/>
</clipPath>
<g id="surface89" clip-path="url(#clip29)">
<path style=" stroke:none;fill-rule:evenodd;fill:rgb(99.607843%,100%,99.607843%);fill-opacity:1;" d="M 149.65625 22.433594 C 150.109375 22.433594 150.558594 22.433594 151.011719 22.433594 C 150.800781 23.332031 150.539062 24.214844 150.222656 25.082031 C 150.152344 25.171875 150.066406 25.234375 149.957031 25.269531 C 149.480469 25.308594 149.003906 25.320312 148.523438 25.308594 C 148.523438 24.929688 148.523438 24.550781 148.523438 24.175781 C 148.746094 24.195312 148.960938 24.167969 149.164062 24.097656 C 149.308594 23.535156 149.46875 22.980469 149.65625 22.433594 Z M 149.65625 22.433594 "/>
</g>
<mask id="mask29">
  <g filter="url(#alpha)">
<rect x="0" y="0" width="215" height="60" style="fill:rgb(0%,0%,0%);fill-opacity:0.913725;stroke:none;"/>
  </g>
</mask>
<clipPath id="clip30">
  <rect x="0" y="0" width="215" height="60"/>
</clipPath>
<g id="surface92" clip-path="url(#clip30)">
<path style=" stroke:none;fill-rule:evenodd;fill:rgb(99.607843%,100%,99.607843%);fill-opacity:1;" d="M 130.652344 22.738281 C 132.738281 22.738281 134.824219 22.738281 136.910156 22.738281 C 136.910156 23.113281 136.910156 23.492188 136.910156 23.871094 C 134.800781 23.871094 132.6875 23.871094 130.574219 23.871094 C 130.554688 23.484375 130.578125 23.109375 130.652344 22.738281 Z M 130.652344 22.738281 "/>
</g>
<mask id="mask30">
  <g filter="url(#alpha)">
<rect x="0" y="0" width="215" height="60" style="fill:rgb(0%,0%,0%);fill-opacity:0.968627;stroke:none;"/>
  </g>
</mask>
<clipPath id="clip31">
  <rect x="0" y="0" width="215" height="60"/>
</clipPath>
<g id="surface95" clip-path="url(#clip31)">
<path style=" stroke:none;fill-rule:evenodd;fill:rgb(99.607843%,100%,99.607843%);fill-opacity:1;" d="M 140.378906 27.050781 C 141.453125 27.023438 142.523438 27.050781 143.585938 27.125 C 143.609375 30.757812 143.636719 34.386719 143.660156 38.019531 C 145.726562 36.382812 147.800781 34.757812 149.882812 33.140625 C 151.640625 33.078125 153.402344 33.089844 155.160156 33.179688 C 152.359375 35.34375 149.570312 37.527344 146.789062 39.722656 C 149.679688 42.496094 152.542969 45.292969 155.386719 48.121094 C 153.804688 48.171875 152.21875 48.171875 150.636719 48.121094 C 148.3125 45.839844 145.984375 43.554688 143.660156 41.273438 C 143.636719 43.542969 143.609375 45.8125 143.585938 48.082031 C 142.523438 48.15625 141.453125 48.183594 140.378906 48.160156 C 140.378906 41.121094 140.378906 34.085938 140.378906 27.050781 Z M 140.378906 27.050781 "/>
</g>
<mask id="mask31">
  <g filter="url(#alpha)">
<rect x="0" y="0" width="215" height="60" style="fill:rgb(0%,0%,0%);fill-opacity:0.980392;stroke:none;"/>
  </g>
</mask>
<clipPath id="clip32">
  <rect x="0" y="0" width="215" height="60"/>
</clipPath>
<g id="surface98" clip-path="url(#clip32)">
<path style=" stroke:none;fill-rule:evenodd;fill:rgb(99.607843%,100%,99.607843%);fill-opacity:1;" d="M 105.992188 27.125 C 107.828125 27.113281 109.660156 27.125 111.496094 27.164062 C 113.617188 27.425781 114.9375 28.597656 115.457031 30.679688 C 115.703125 32.75 115.703125 34.816406 115.457031 36.886719 C 115.253906 38.035156 114.714844 38.980469 113.835938 39.722656 C 113.515625 39.894531 113.191406 40.046875 112.855469 40.175781 C 111.007812 40.40625 109.171875 40.707031 107.347656 41.085938 C 107.078125 41.292969 106.886719 41.558594 106.785156 41.878906 C 106.71875 42.507812 106.695312 43.140625 106.707031 43.769531 C 106.769531 43.933594 106.882812 44.046875 107.046875 44.109375 C 109.9375 44.125 112.828125 44.160156 115.71875 44.222656 C 115.140625 45.636719 114.5625 47.050781 113.984375 48.460938 C 110.019531 48.5625 106.0625 48.5625 102.109375 48.460938 C 102.042969 46.113281 102.070312 43.769531 102.183594 41.425781 C 102.296875 39.9375 102.890625 38.691406 103.957031 37.679688 C 104.691406 37.199219 105.496094 36.894531 106.367188 36.773438 C 107.75 36.632812 109.105469 36.378906 110.441406 36.015625 C 110.78125 35.675781 110.945312 35.257812 110.929688 34.765625 C 110.980469 33.933594 110.980469 33.101562 110.929688 32.269531 C 110.882812 31.871094 110.671875 31.605469 110.289062 31.476562 C 109.359375 31.425781 108.429688 31.425781 107.5 31.476562 C 107.011719 31.585938 106.699219 31.875 106.558594 32.34375 C 106.445312 33.277344 106.382812 34.207031 106.367188 35.144531 C 104.9375 35.144531 103.503906 35.144531 102.070312 35.144531 C 102.058594 33.707031 102.09375 32.269531 102.183594 30.832031 C 102.332031 29.765625 102.769531 28.847656 103.503906 28.070312 C 104.273438 27.582031 105.101562 27.265625 105.992188 27.125 Z M 105.992188 27.125 "/>
</g>
<mask id="mask32">
  <g filter="url(#alpha)">
<rect x="0" y="0" width="215" height="60" style="fill:rgb(0%,0%,0%);fill-opacity:0.984314;stroke:none;"/>
  </g>
</mask>
<clipPath id="clip33">
  <rect x="0" y="0" width="215" height="60"/>
</clipPath>
<g id="surface101" clip-path="url(#clip33)">
<path style=" stroke:none;fill-rule:evenodd;fill:rgb(99.607843%,100%,99.607843%);fill-opacity:1;" d="M 64.289062 27.199219 C 65.515625 27.175781 66.734375 27.203125 67.945312 27.277344 C 67.984375 29.976562 67.996094 32.671875 67.984375 35.371094 C 71.527344 35.371094 75.074219 35.371094 78.617188 35.371094 C 78.617188 32.648438 78.617188 29.925781 78.617188 27.199219 C 80.554688 27.203125 82.488281 27.230469 84.425781 27.277344 C 84.4375 33.832031 84.425781 40.390625 84.386719 46.949219 C 82.480469 47.539062 80.570312 48.121094 78.65625 48.6875 C 78.617188 45.863281 78.605469 43.039062 78.617188 40.214844 C 75.074219 40.214844 71.527344 40.214844 67.984375 40.214844 C 68.007812 42.484375 67.984375 44.753906 67.910156 47.023438 C 66.003906 47.601562 64.09375 48.15625 62.175781 48.6875 C 62.175781 41.550781 62.175781 34.414062 62.175781 27.277344 C 62.894531 27.300781 63.597656 27.277344 64.289062 27.199219 Z M 64.289062 27.199219 "/>
</g>
<mask id="mask33">
  <g filter="url(#alpha)">
<rect x="0" y="0" width="215" height="60" style="fill:rgb(0%,0%,0%);fill-opacity:0.980392;stroke:none;"/>
  </g>
</mask>
<clipPath id="clip34">
  <rect x="0" y="0" width="215" height="60"/>
</clipPath>
<g id="surface104" clip-path="url(#clip34)">
<path style=" stroke:none;fill-rule:evenodd;fill:rgb(99.607843%,100%,99.607843%);fill-opacity:1;" d="M 120.621094 27.199219 C 122.734375 27.1875 124.84375 27.199219 126.957031 27.238281 C 128.570312 27.445312 129.710938 28.289062 130.386719 29.773438 C 130.660156 30.425781 130.8125 31.105469 130.839844 31.816406 C 131.054688 35.574219 131.078125 39.332031 130.914062 43.089844 C 130.835938 44.519531 130.40625 45.832031 129.632812 47.023438 C 128.90625 47.859375 127.988281 48.328125 126.882812 48.421875 C 124.691406 48.496094 122.503906 48.472656 120.320312 48.347656 C 118.941406 47.921875 118 47.027344 117.492188 45.660156 C 117.125 44.664062 116.960938 43.628906 117 42.558594 C 117.015625 42.105469 117.039062 41.652344 117.078125 41.199219 C 118.410156 41.183594 119.742188 41.199219 121.074219 41.234375 C 120.78125 43.363281 121.699219 44.28125 123.828125 43.996094 C 124.59375 44.089844 125.3125 43.949219 125.976562 43.582031 C 126.25 43.375 126.4375 43.109375 126.542969 42.785156 C 126.664062 41.679688 126.6875 40.570312 126.617188 39.457031 C 126.230469 39.785156 125.792969 39.996094 125.296875 40.101562 C 123.433594 40.171875 121.574219 40.144531 119.714844 40.023438 C 118.6875 39.648438 117.945312 38.953125 117.492188 37.945312 C 117.144531 36.683594 116.980469 35.398438 117 34.085938 C 116.996094 32.734375 117.136719 31.394531 117.417969 30.074219 C 117.914062 28.457031 118.980469 27.496094 120.621094 27.199219 Z M 122.28125 31.589844 C 123.4375 31.578125 124.59375 31.589844 125.75 31.625 C 126.34375 31.820312 126.632812 32.238281 126.617188 32.875 C 126.667969 33.378906 126.667969 33.882812 126.617188 34.386719 C 126.640625 34.984375 126.402344 35.425781 125.902344 35.710938 C 124.667969 35.761719 123.4375 35.761719 122.207031 35.710938 C 121.699219 35.558594 121.410156 35.21875 121.339844 34.691406 C 121.289062 34.035156 121.289062 33.378906 121.339844 32.722656 C 121.40625 32.113281 121.722656 31.734375 122.28125 31.589844 Z M 122.28125 31.589844 "/>
</g>
<mask id="mask34">
  <g filter="url(#alpha)">
<rect x="0" y="0" width="215" height="60" style="fill:rgb(0%,0%,0%);fill-opacity:0.976471;stroke:none;"/>
  </g>
</mask>
<clipPath id="clip35">
  <rect x="0" y="0" width="215" height="60"/>
</clipPath>
<g id="surface107" clip-path="url(#clip35)">
<path style=" stroke:none;fill-rule:evenodd;fill:rgb(99.607843%,100%,99.607843%);fill-opacity:1;" d="M 87.140625 27.277344 C 91.636719 27.261719 96.136719 27.277344 100.636719 27.3125 C 100.726562 28.910156 100.738281 30.511719 100.675781 32.117188 C 97.921875 37.550781 95.246094 43.011719 92.644531 48.5 C 90.859375 48.539062 89.074219 48.550781 87.289062 48.539062 C 90.003906 43.042969 92.71875 37.542969 95.433594 32.042969 C 92.644531 31.96875 89.855469 31.941406 87.0625 31.96875 C 87.039062 30.398438 87.0625 28.835938 87.140625 27.277344 Z M 87.140625 27.277344 "/>
</g>
<mask id="mask35">
  <g filter="url(#alpha)">
<rect x="0" y="0" width="215" height="60" style="fill:rgb(0%,0%,0%);fill-opacity:0.972549;stroke:none;"/>
  </g>
</mask>
<clipPath id="clip36">
  <rect x="0" y="0" width="215" height="60"/>
</clipPath>
<g id="surface110" clip-path="url(#clip36)">
<path style=" stroke:none;fill-rule:evenodd;fill:rgb(99.607843%,100%,99.607843%);fill-opacity:1;" d="M 214.960938 39.457031 C 214.960938 40.1875 214.960938 40.921875 214.960938 41.652344 C 214.308594 45.121094 212.296875 47.40625 208.929688 48.5 C 204.832031 49.335938 201.726562 47.964844 199.617188 44.375 C 198.222656 41.128906 198.546875 38.078125 200.597656 35.21875 C 202.941406 32.679688 205.792969 31.835938 209.15625 32.6875 C 212.40625 33.816406 214.34375 36.074219 214.960938 39.457031 Z M 206.0625 35.75 C 208.582031 35.59375 210.378906 36.652344 211.457031 38.929688 C 212.1875 41.707031 211.269531 43.738281 208.703125 45.019531 C 205.9375 45.894531 203.839844 45.074219 202.40625 42.558594 C 201.519531 40.015625 202.160156 37.957031 204.328125 36.394531 C 204.886719 36.09375 205.464844 35.878906 206.0625 35.75 Z M 206.0625 35.75 "/>
</g>
<mask id="mask36">
  <g filter="url(#alpha)">
<rect x="0" y="0" width="215" height="60" style="fill:rgb(0%,0%,0%);fill-opacity:0.972549;stroke:none;"/>
  </g>
</mask>
<clipPath id="clip37">
  <rect x="0" y="0" width="215" height="60"/>
</clipPath>
<g id="surface113" clip-path="url(#clip37)">
<path style=" stroke:none;fill-rule:evenodd;fill:rgb(99.607843%,100%,99.607843%);fill-opacity:1;" d="M 156.441406 32.949219 C 159.058594 32.9375 161.671875 32.949219 164.285156 32.988281 C 166.144531 32.996094 167.742188 33.640625 169.074219 34.917969 C 169.910156 35.898438 170.414062 37.03125 170.582031 38.324219 C 170.664062 40.097656 170.703125 41.878906 170.695312 43.65625 C 170.695312 45.152344 170.667969 46.636719 170.621094 48.121094 C 167.328125 48.171875 164.035156 48.171875 160.742188 48.121094 C 157.339844 47.585938 155.84375 45.605469 156.253906 42.179688 C 156.839844 40.03125 158.234375 38.785156 160.4375 38.4375 C 162.703125 38.398438 164.964844 38.386719 167.226562 38.398438 C 166.9375 37.265625 166.210938 36.621094 165.039062 36.46875 C 162.175781 36.371094 159.308594 36.320312 156.441406 36.316406 C 156.34375 35.195312 156.34375 34.074219 156.441406 32.949219 Z M 160.96875 41.726562 C 163.128906 41.726562 165.289062 41.726562 167.453125 41.726562 C 167.453125 42.785156 167.453125 43.847656 167.453125 44.90625 C 165.265625 44.917969 163.078125 44.90625 160.890625 44.867188 C 159.519531 44.496094 159.105469 43.652344 159.648438 42.332031 C 159.734375 42.246094 159.824219 42.15625 159.910156 42.066406 C 160.261719 41.914062 160.613281 41.800781 160.96875 41.726562 Z M 160.96875 41.726562 "/>
</g>
<mask id="mask37">
  <g filter="url(#alpha)">
<rect x="0" y="0" width="215" height="60" style="fill:rgb(0%,0%,0%);fill-opacity:0.972549;stroke:none;"/>
  </g>
</mask>
<clipPath id="clip38">
  <rect x="0" y="0" width="215" height="60"/>
</clipPath>
<g id="surface116" clip-path="url(#clip38)">
<path style=" stroke:none;fill-rule:evenodd;fill:rgb(99.607843%,100%,99.607843%);fill-opacity:1;" d="M 171.828125 33.101562 C 174.515625 33.089844 177.207031 33.101562 179.894531 33.140625 C 183.011719 33.621094 185.035156 35.371094 185.964844 38.398438 C 186.53125 40.796875 186.175781 43.039062 184.910156 45.132812 C 183.613281 46.960938 181.84375 47.957031 179.59375 48.121094 C 178.085938 48.160156 176.578125 48.171875 175.070312 48.160156 C 175.070312 49.824219 175.070312 51.488281 175.070312 53.152344 C 173.988281 53.152344 172.90625 53.152344 171.828125 53.152344 C 171.828125 46.46875 171.828125 39.785156 171.828125 33.101562 Z M 175.070312 36.355469 C 176.601562 36.34375 178.136719 36.355469 179.667969 36.394531 C 181.507812 36.761719 182.550781 37.882812 182.800781 39.761719 C 182.992188 41.09375 182.742188 42.328125 182.042969 43.46875 C 181.367188 44.289062 180.5 44.757812 179.441406 44.867188 C 177.984375 44.90625 176.527344 44.917969 175.070312 44.90625 C 175.070312 42.054688 175.070312 39.207031 175.070312 36.355469 Z M 175.070312 36.355469 "/>
</g>
<mask id="mask38">
  <g filter="url(#alpha)">
<rect x="0" y="0" width="215" height="60" style="fill:rgb(0%,0%,0%);fill-opacity:0.968627;stroke:none;"/>
  </g>
</mask>
<clipPath id="clip39">
  <rect x="0" y="0" width="215" height="60"/>
</clipPath>
<g id="surface119" clip-path="url(#clip39)">
<path style=" stroke:none;fill-rule:evenodd;fill:rgb(99.607843%,100%,99.607843%);fill-opacity:1;" d="M 187.363281 33.101562 C 189.398438 33.089844 191.433594 33.101562 193.46875 33.140625 C 195.382812 33.320312 196.652344 34.316406 197.277344 36.128906 C 197.4375 36.699219 197.535156 37.277344 197.578125 37.867188 C 197.617188 38.878906 197.628906 39.886719 197.617188 40.894531 C 196.535156 40.894531 195.457031 40.894531 194.375 40.894531 C 194.386719 39.960938 194.375 39.027344 194.335938 38.097656 C 194.25 37.203125 193.785156 36.636719 192.941406 36.394531 C 192.164062 36.355469 191.382812 36.34375 190.605469 36.355469 C 190.605469 40.289062 190.605469 44.222656 190.605469 48.160156 C 189.523438 48.160156 188.441406 48.160156 187.363281 48.160156 C 187.363281 43.140625 187.363281 38.121094 187.363281 33.101562 Z M 187.363281 33.101562 "/>
</g>
<mask id="mask39">
  <g filter="url(#alpha)">
<rect x="0" y="0" width="215" height="60" style="fill:rgb(0%,0%,0%);fill-opacity:0.984314;stroke:none;"/>
  </g>
</mask>
<clipPath id="clip40">
  <rect x="0" y="0" width="215" height="60"/>
</clipPath>
<g id="surface122" clip-path="url(#clip40)">
<path style=" stroke:none;fill-rule:evenodd;fill:rgb(99.607843%,100%,99.607843%);fill-opacity:1;" d="M 34.125 38.398438 C 34.203125 38.386719 34.277344 38.398438 34.351562 38.4375 C 33.617188 39.644531 32.949219 40.890625 32.351562 42.179688 C 30.101562 47.367188 28.316406 52.714844 26.996094 58.222656 C 23.019531 58.296875 19.035156 58.324219 15.042969 58.296875 C 16.21875 54.46875 17.449219 50.660156 18.738281 46.871094 C 23.898438 44.085938 29.023438 41.257812 34.125 38.398438 Z M 34.125 38.398438 "/>
</g>
<mask id="mask40">
  <g filter="url(#alpha)">
<rect x="0" y="0" width="215" height="60" style="fill:rgb(0%,0%,0%);fill-opacity:0.839216;stroke:none;"/>
  </g>
</mask>
<clipPath id="clip41">
  <rect x="0" y="0" width="215" height="60"/>
</clipPath>
<g id="surface125" clip-path="url(#clip41)">
<path style=" stroke:none;fill-rule:evenodd;fill:rgb(99.607843%,100%,99.607843%);fill-opacity:1;" d="M 81.484375 54.742188 C 81.910156 54.742188 82.335938 54.742188 82.765625 54.742188 C 82.765625 55.042969 82.765625 55.347656 82.765625 55.648438 C 82.335938 55.648438 81.910156 55.648438 81.484375 55.648438 C 81.484375 55.347656 81.484375 55.042969 81.484375 54.742188 Z M 81.484375 54.742188 "/>
</g>
<mask id="mask41">
  <g filter="url(#alpha)">
<rect x="0" y="0" width="215" height="60" style="fill:rgb(0%,0%,0%);fill-opacity:0.933333;stroke:none;"/>
  </g>
</mask>
<clipPath id="clip42">
  <rect x="0" y="0" width="215" height="60"/>
</clipPath>
<g id="surface128" clip-path="url(#clip42)">
<path style=" stroke:none;fill-rule:evenodd;fill:rgb(99.607843%,100%,99.607843%);fill-opacity:1;" d="M 138.117188 54.742188 C 138.46875 54.742188 138.820312 54.742188 139.171875 54.742188 C 139.171875 56.332031 139.171875 57.917969 139.171875 59.507812 C 138.375 59.382812 137.570312 59.320312 136.761719 59.320312 C 136.160156 59.046875 135.820312 58.578125 135.742188 57.917969 C 135.679688 56.304688 136.445312 55.625 138.042969 55.875 C 138.117188 55.5 138.140625 55.125 138.117188 54.742188 Z M 137.289062 56.632812 C 137.546875 56.613281 137.796875 56.640625 138.042969 56.707031 C 138.128906 57.289062 138.140625 57.867188 138.078125 58.449219 C 137.453125 58.78125 137.050781 58.605469 136.871094 57.917969 C 136.75 57.394531 136.890625 56.964844 137.289062 56.632812 Z M 137.289062 56.632812 "/>
</g>
<mask id="mask42">
  <g filter="url(#alpha)">
<rect x="0" y="0" width="215" height="60" style="fill:rgb(0%,0%,0%);fill-opacity:0.898039;stroke:none;"/>
  </g>
</mask>
<clipPath id="clip43">
  <rect x="0" y="0" width="215" height="60"/>
</clipPath>
<g id="surface131" clip-path="url(#clip43)">
<path style=" stroke:none;fill-rule:evenodd;fill:rgb(99.607843%,100%,99.607843%);fill-opacity:1;" d="M 172.65625 54.742188 C 173.210938 54.679688 173.742188 54.769531 174.238281 55.007812 C 174.558594 55.269531 174.707031 55.609375 174.691406 56.027344 C 174.316406 56.027344 173.9375 56.027344 173.5625 56.027344 C 173.53125 55.648438 173.332031 55.507812 172.957031 55.613281 C 172.570312 56.023438 172.417969 56.511719 172.503906 57.085938 C 172.453125 57.59375 172.554688 58.058594 172.808594 58.488281 C 173.261719 58.722656 173.515625 58.582031 173.5625 58.070312 C 174.832031 57.859375 175.03125 58.226562 174.164062 59.167969 C 173.460938 59.515625 172.757812 59.515625 172.054688 59.167969 C 171.722656 58.9375 171.507812 58.621094 171.410156 58.222656 C 171.226562 57.347656 171.273438 56.492188 171.5625 55.648438 C 171.804688 55.191406 172.171875 54.886719 172.65625 54.742188 Z M 172.65625 54.742188 "/>
</g>
<mask id="mask43">
  <g filter="url(#alpha)">
<rect x="0" y="0" width="215" height="60" style="fill:rgb(0%,0%,0%);fill-opacity:0.823529;stroke:none;"/>
  </g>
</mask>
<clipPath id="clip44">
  <rect x="0" y="0" width="215" height="60"/>
</clipPath>
<g id="surface134" clip-path="url(#clip44)">
<path style=" stroke:none;fill-rule:evenodd;fill:rgb(99.607843%,100%,99.607843%);fill-opacity:1;" d="M 203.953125 54.742188 C 204.378906 54.742188 204.804688 54.742188 205.234375 54.742188 C 205.234375 55.042969 205.234375 55.347656 205.234375 55.648438 C 204.804688 55.648438 204.378906 55.648438 203.953125 55.648438 C 203.953125 55.347656 203.953125 55.042969 203.953125 54.742188 Z M 203.953125 54.742188 "/>
</g>
<mask id="mask44">
  <g filter="url(#alpha)">
<rect x="0" y="0" width="215" height="60" style="fill:rgb(0%,0%,0%);fill-opacity:0.92549;stroke:none;"/>
  </g>
</mask>
<clipPath id="clip45">
  <rect x="0" y="0" width="215" height="60"/>
</clipPath>
<g id="surface137" clip-path="url(#clip45)">
<path style=" stroke:none;fill-rule:evenodd;fill:rgb(99.607843%,100%,99.607843%);fill-opacity:1;" d="M 60.746094 54.816406 C 61.121094 54.816406 61.5 54.816406 61.875 54.816406 C 61.875 55.472656 61.875 56.128906 61.875 56.785156 C 62.203125 56.785156 62.527344 56.785156 62.855469 56.785156 C 62.855469 56.128906 62.855469 55.472656 62.855469 54.816406 C 63.234375 54.816406 63.609375 54.816406 63.988281 54.816406 C 63.988281 56.332031 63.988281 57.84375 63.988281 59.355469 C 63.609375 59.355469 63.234375 59.355469 62.855469 59.355469 C 62.855469 58.777344 62.855469 58.195312 62.855469 57.617188 C 62.527344 57.617188 62.203125 57.617188 61.875 57.617188 C 61.875 58.195312 61.875 58.777344 61.875 59.355469 C 61.5 59.355469 61.121094 59.355469 60.746094 59.355469 C 60.746094 57.84375 60.746094 56.332031 60.746094 54.816406 Z M 60.746094 54.816406 "/>
</g>
<mask id="mask45">
  <g filter="url(#alpha)">
<rect x="0" y="0" width="215" height="60" style="fill:rgb(0%,0%,0%);fill-opacity:0.92549;stroke:none;"/>
  </g>
</mask>
<clipPath id="clip46">
  <rect x="0" y="0" width="215" height="60"/>
</clipPath>
<g id="surface140" clip-path="url(#clip46)">
<path style=" stroke:none;fill-rule:evenodd;fill:rgb(99.607843%,100%,99.607843%);fill-opacity:1;" d="M 76.429688 54.816406 C 77.160156 54.804688 77.886719 54.816406 78.617188 54.855469 C 79.628906 55.21875 79.941406 55.914062 79.558594 56.9375 C 79.3125 57.242188 79 57.445312 78.617188 57.539062 C 79.027344 58.164062 79.480469 58.757812 79.972656 59.320312 C 79.523438 59.371094 79.070312 59.371094 78.617188 59.320312 C 78.304688 58.882812 77.964844 58.464844 77.597656 58.070312 C 77.5625 58.5 77.546875 58.925781 77.5625 59.355469 C 77.183594 59.355469 76.808594 59.355469 76.429688 59.355469 C 76.429688 57.84375 76.429688 56.332031 76.429688 54.816406 Z M 77.5625 55.648438 C 77.847656 55.625 78.125 55.660156 78.390625 55.761719 C 78.710938 56.101562 78.683594 56.40625 78.316406 56.671875 C 78.066406 56.707031 77.8125 56.722656 77.5625 56.707031 C 77.5625 56.355469 77.5625 56.003906 77.5625 55.648438 Z M 77.5625 55.648438 "/>
</g>
<mask id="mask46">
  <g filter="url(#alpha)">
<rect x="0" y="0" width="215" height="60" style="fill:rgb(0%,0%,0%);fill-opacity:0.905882;stroke:none;"/>
  </g>
</mask>
<clipPath id="clip47">
  <rect x="0" y="0" width="215" height="60"/>
</clipPath>
<g id="surface143" clip-path="url(#clip47)">
<path style=" stroke:none;fill-rule:evenodd;fill:rgb(99.607843%,100%,99.607843%);fill-opacity:1;" d="M 100.714844 54.816406 C 101.46875 54.816406 102.222656 54.816406 102.976562 54.816406 C 102.976562 55.042969 102.976562 55.269531 102.976562 55.5 C 102.800781 55.5 102.625 55.5 102.449219 55.5 C 102.449219 56.558594 102.449219 57.617188 102.449219 58.675781 C 102.625 58.675781 102.800781 58.675781 102.976562 58.675781 C 102.976562 58.902344 102.976562 59.128906 102.976562 59.355469 C 102.222656 59.355469 101.46875 59.355469 100.714844 59.355469 C 100.699219 59.152344 100.714844 58.953125 100.75 58.75 C 100.929688 58.679688 101.117188 58.65625 101.316406 58.675781 C 101.316406 57.617188 101.316406 56.558594 101.316406 55.5 C 101.117188 55.519531 100.929688 55.492188 100.75 55.421875 C 100.714844 55.222656 100.699219 55.019531 100.714844 54.816406 Z M 100.714844 54.816406 "/>
</g>
<mask id="mask47">
  <g filter="url(#alpha)">
<rect x="0" y="0" width="215" height="60" style="fill:rgb(0%,0%,0%);fill-opacity:0.909804;stroke:none;"/>
  </g>
</mask>
<clipPath id="clip48">
  <rect x="0" y="0" width="215" height="60"/>
</clipPath>
<g id="surface146" clip-path="url(#clip48)">
<path style=" stroke:none;fill-rule:evenodd;fill:rgb(99.607843%,100%,99.607843%);fill-opacity:1;" d="M 143.773438 54.816406 C 144.804688 54.816406 145.835938 54.816406 146.863281 54.816406 C 146.886719 55.089844 146.863281 55.355469 146.789062 55.613281 C 146.160156 55.648438 145.535156 55.660156 144.90625 55.648438 C 144.90625 56.027344 144.90625 56.40625 144.90625 56.785156 C 145.332031 56.785156 145.757812 56.785156 146.1875 56.785156 C 146.207031 57.058594 146.183594 57.320312 146.109375 57.578125 C 145.710938 57.617188 145.308594 57.628906 144.90625 57.617188 C 144.90625 57.917969 144.90625 58.222656 144.90625 58.523438 C 145.535156 58.511719 146.160156 58.523438 146.789062 58.5625 C 146.863281 58.820312 146.886719 59.085938 146.863281 59.355469 C 145.835938 59.355469 144.804688 59.355469 143.773438 59.355469 C 143.773438 57.84375 143.773438 56.332031 143.773438 54.816406 Z M 143.773438 54.816406 "/>
</g>
<mask id="mask48">
  <g filter="url(#alpha)">
<rect x="0" y="0" width="215" height="60" style="fill:rgb(0%,0%,0%);fill-opacity:0.913725;stroke:none;"/>
  </g>
</mask>
<clipPath id="clip49">
  <rect x="0" y="0" width="215" height="60"/>
</clipPath>
<g id="surface149" clip-path="url(#clip49)">
<path style=" stroke:none;fill-rule:evenodd;fill:rgb(99.607843%,100%,99.607843%);fill-opacity:1;" d="M 121.074219 54.894531 C 121.425781 54.894531 121.777344 54.894531 122.128906 54.894531 C 122.128906 55.21875 122.128906 55.546875 122.128906 55.875 C 122.457031 55.875 122.785156 55.875 123.109375 55.875 C 123.109375 56.152344 123.109375 56.429688 123.109375 56.707031 C 122.785156 56.707031 122.457031 56.707031 122.128906 56.707031 C 122.117188 57.289062 122.128906 57.871094 122.167969 58.449219 C 122.21875 58.566406 122.308594 58.640625 122.429688 58.675781 C 122.625 58.609375 122.828125 58.582031 123.035156 58.601562 C 123.035156 58.851562 123.035156 59.105469 123.035156 59.355469 C 122.585938 59.429688 122.132812 59.441406 121.675781 59.394531 C 121.3125 59.332031 121.097656 59.117188 121.035156 58.75 C 121 58.070312 120.984375 57.390625 121 56.707031 C 120.722656 56.722656 120.445312 56.707031 120.167969 56.671875 C 120.097656 56.414062 120.070312 56.148438 120.09375 55.875 C 120.394531 55.875 120.695312 55.875 121 55.875 C 120.976562 55.542969 121.003906 55.214844 121.074219 54.894531 Z M 121.074219 54.894531 "/>
</g>
<mask id="mask49">
  <g filter="url(#alpha)">
<rect x="0" y="0" width="215" height="60" style="fill:rgb(0%,0%,0%);fill-opacity:0.894118;stroke:none;"/>
  </g>
</mask>
<clipPath id="clip50">
  <rect x="0" y="0" width="215" height="60"/>
</clipPath>
<g id="surface152" clip-path="url(#clip50)">
<path style=" stroke:none;fill-rule:evenodd;fill:rgb(99.607843%,100%,99.607843%);fill-opacity:1;" d="M 164.511719 54.894531 C 164.863281 54.878906 165.214844 54.894531 165.566406 54.929688 C 165.640625 55.238281 165.664062 55.554688 165.644531 55.875 C 165.945312 55.875 166.246094 55.875 166.546875 55.875 C 166.546875 56.152344 166.546875 56.429688 166.546875 56.707031 C 166.246094 56.707031 165.945312 56.707031 165.644531 56.707031 C 165.644531 57.339844 165.644531 57.96875 165.644531 58.601562 C 165.90625 58.632812 166.183594 58.632812 166.472656 58.601562 C 166.472656 58.851562 166.472656 59.105469 166.472656 59.355469 C 166.023438 59.429688 165.570312 59.441406 165.113281 59.394531 C 164.679688 59.3125 164.46875 59.046875 164.472656 58.601562 C 164.4375 57.96875 164.421875 57.339844 164.4375 56.707031 C 164.160156 56.707031 163.882812 56.707031 163.605469 56.707031 C 163.605469 56.429688 163.605469 56.152344 163.605469 55.875 C 163.882812 55.875 164.160156 55.875 164.4375 55.875 C 164.414062 55.542969 164.441406 55.214844 164.511719 54.894531 Z M 164.511719 54.894531 "/>
</g>
<mask id="mask50">
  <g filter="url(#alpha)">
<rect x="0" y="0" width="215" height="60" style="fill:rgb(0%,0%,0%);fill-opacity:0.909804;stroke:none;"/>
  </g>
</mask>
<clipPath id="clip51">
  <rect x="0" y="0" width="215" height="60"/>
</clipPath>
<g id="surface155" clip-path="url(#clip51)">
<path style=" stroke:none;fill-rule:evenodd;fill:rgb(99.607843%,100%,99.607843%);fill-opacity:1;" d="M 200.03125 54.894531 C 200.382812 54.878906 200.734375 54.894531 201.085938 54.929688 C 201.160156 55.238281 201.183594 55.554688 201.160156 55.875 C 201.488281 55.875 201.816406 55.875 202.140625 55.875 C 202.164062 56.148438 202.140625 56.414062 202.066406 56.671875 C 201.765625 56.707031 201.464844 56.722656 201.160156 56.707031 C 201.148438 57.316406 201.160156 57.917969 201.199219 58.523438 C 201.28125 58.585938 201.371094 58.636719 201.464844 58.675781 C 201.65625 58.609375 201.859375 58.582031 202.066406 58.601562 C 202.089844 58.847656 202.0625 59.085938 201.992188 59.320312 C 201.394531 59.5 200.816406 59.460938 200.257812 59.207031 C 200.15625 59.097656 200.09375 58.972656 200.070312 58.828125 C 200.03125 58.121094 200.019531 57.414062 200.03125 56.707031 C 199.730469 56.707031 199.425781 56.707031 199.125 56.707031 C 199.125 56.429688 199.125 56.152344 199.125 55.875 C 199.425781 55.875 199.730469 55.875 200.03125 55.875 C 200.03125 55.546875 200.03125 55.21875 200.03125 54.894531 Z M 200.03125 54.894531 "/>
</g>
<mask id="mask51">
  <g filter="url(#alpha)">
<rect x="0" y="0" width="215" height="60" style="fill:rgb(0%,0%,0%);fill-opacity:0.905882;stroke:none;"/>
  </g>
</mask>
<clipPath id="clip52">
  <rect x="0" y="0" width="215" height="60"/>
</clipPath>
<g id="surface158" clip-path="url(#clip52)">
<path style=" stroke:none;fill-rule:evenodd;fill:rgb(99.607843%,100%,99.607843%);fill-opacity:1;" d="M 109.234375 59.960938 C 108.855469 59.960938 108.480469 59.960938 108.101562 59.960938 C 108.101562 58.550781 108.101562 57.136719 108.101562 55.726562 C 108.480469 55.726562 108.855469 55.726562 109.234375 55.726562 C 109.207031 55.984375 109.28125 56.019531 109.460938 55.839844 C 110.800781 55.660156 111.480469 56.25 111.496094 57.617188 C 111.351562 58.972656 110.597656 59.578125 109.234375 59.433594 C 109.234375 59.609375 109.234375 59.785156 109.234375 59.960938 Z M 109.613281 56.480469 C 109.8125 56.496094 109.988281 56.570312 110.140625 56.707031 C 110.421875 57.257812 110.4375 57.8125 110.175781 58.375 C 109.933594 58.675781 109.632812 58.75 109.273438 58.601562 C 109.222656 57.945312 109.222656 57.289062 109.273438 56.632812 C 109.394531 56.585938 109.507812 56.539062 109.613281 56.480469 Z M 109.613281 56.480469 "/>
</g>
<mask id="mask52">
  <g filter="url(#alpha)">
<rect x="0" y="0" width="215" height="60" style="fill:rgb(0%,0%,0%);fill-opacity:0.92549;stroke:none;"/>
  </g>
</mask>
<clipPath id="clip53">
  <rect x="0" y="0" width="215" height="60"/>
</clipPath>
<g id="surface161" clip-path="url(#clip53)">
<path style=" stroke:none;fill-rule:evenodd;fill:rgb(99.607843%,100%,99.607843%);fill-opacity:1;" d="M 152.671875 59.960938 C 152.320312 59.960938 151.96875 59.960938 151.617188 59.960938 C 151.617188 58.550781 151.617188 57.136719 151.617188 55.726562 C 151.96875 55.726562 152.320312 55.726562 152.671875 55.726562 C 152.660156 55.804688 152.671875 55.878906 152.710938 55.953125 C 154.121094 55.558594 154.859375 56.097656 154.933594 57.578125 C 154.808594 58.953125 154.054688 59.570312 152.671875 59.433594 C 152.671875 59.609375 152.671875 59.785156 152.671875 59.960938 Z M 153.050781 56.480469 C 153.265625 56.492188 153.453125 56.566406 153.613281 56.707031 C 153.863281 57.265625 153.863281 57.820312 153.613281 58.375 C 153.371094 58.675781 153.070312 58.75 152.710938 58.601562 C 152.660156 57.945312 152.660156 57.289062 152.710938 56.632812 C 152.832031 56.585938 152.945312 56.539062 153.050781 56.480469 Z M 153.050781 56.480469 "/>
</g>
<mask id="mask53">
  <g filter="url(#alpha)">
<rect x="0" y="0" width="215" height="60" style="fill:rgb(0%,0%,0%);fill-opacity:0.92549;stroke:none;"/>
  </g>
</mask>
<clipPath id="clip54">
  <rect x="0" y="0" width="215" height="60"/>
</clipPath>
<g id="surface164" clip-path="url(#clip54)">
<path style=" stroke:none;fill-rule:evenodd;fill:rgb(99.607843%,100%,99.607843%);fill-opacity:1;" d="M 184.34375 59.960938 C 183.96875 59.960938 183.589844 59.960938 183.214844 59.960938 C 183.214844 58.550781 183.214844 57.136719 183.214844 55.726562 C 183.644531 55.6875 184.058594 55.738281 184.457031 55.875 C 185.371094 55.628906 186.027344 55.933594 186.417969 56.785156 C 186.804688 58.527344 186.113281 59.410156 184.34375 59.433594 C 184.34375 59.609375 184.34375 59.785156 184.34375 59.960938 Z M 184.648438 56.480469 C 184.941406 56.476562 185.15625 56.601562 185.289062 56.859375 C 185.402344 57.257812 185.425781 57.660156 185.363281 58.070312 C 185.21875 58.589844 184.878906 58.792969 184.34375 58.675781 C 184.34375 57.96875 184.34375 57.261719 184.34375 56.558594 C 184.464844 56.578125 184.566406 56.550781 184.648438 56.480469 Z M 184.648438 56.480469 "/>
</g>
<mask id="mask54">
  <g filter="url(#alpha)">
<rect x="0" y="0" width="215" height="60" style="fill:rgb(0%,0%,0%);fill-opacity:0.917647;stroke:none;"/>
  </g>
</mask>
<clipPath id="clip55">
  <rect x="0" y="0" width="215" height="60"/>
</clipPath>
<g id="surface167" clip-path="url(#clip55)">
<path style=" stroke:none;fill-rule:evenodd;fill:rgb(99.607843%,100%,99.607843%);fill-opacity:1;" d="M 64.742188 55.800781 C 65.117188 55.800781 65.496094 55.800781 65.871094 55.800781 C 65.859375 56.660156 65.871094 57.515625 65.910156 58.375 C 66.226562 58.585938 66.527344 58.558594 66.816406 58.296875 C 66.851562 57.464844 66.867188 56.632812 66.851562 55.800781 C 67.230469 55.800781 67.605469 55.800781 67.984375 55.800781 C 67.984375 57.011719 67.984375 58.222656 67.984375 59.433594 C 67.589844 59.472656 67.210938 59.421875 66.851562 59.28125 C 66.121094 59.488281 65.480469 59.335938 64.929688 58.828125 C 64.878906 58.726562 64.828125 58.625 64.777344 58.523438 C 64.742188 57.617188 64.730469 56.710938 64.742188 55.800781 Z M 64.742188 55.800781 "/>
</g>
<mask id="mask55">
  <g filter="url(#alpha)">
<rect x="0" y="0" width="215" height="60" style="fill:rgb(0%,0%,0%);fill-opacity:0.917647;stroke:none;"/>
  </g>
</mask>
<clipPath id="clip56">
  <rect x="0" y="0" width="215" height="60"/>
</clipPath>
<g id="surface170" clip-path="url(#clip56)">
<path style=" stroke:none;fill-rule:evenodd;fill:rgb(99.607843%,100%,99.607843%);fill-opacity:1;" d="M 68.585938 55.800781 C 69.015625 55.761719 69.429688 55.8125 69.832031 55.953125 C 70.320312 55.792969 70.8125 55.804688 71.300781 55.988281 C 71.601562 56.140625 71.792969 56.378906 71.867188 56.707031 C 71.90625 57.589844 71.917969 58.472656 71.90625 59.355469 C 71.527344 59.355469 71.152344 59.355469 70.773438 59.355469 C 70.785156 58.5 70.773438 57.640625 70.738281 56.785156 C 70.253906 56.570312 69.925781 56.71875 69.757812 57.238281 C 69.71875 57.945312 69.707031 58.648438 69.71875 59.355469 C 69.339844 59.355469 68.964844 59.355469 68.585938 59.355469 C 68.585938 58.171875 68.585938 56.984375 68.585938 55.800781 Z M 68.585938 55.800781 "/>
</g>
<mask id="mask56">
  <g filter="url(#alpha)">
<rect x="0" y="0" width="215" height="60" style="fill:rgb(0%,0%,0%);fill-opacity:0.901961;stroke:none;"/>
  </g>
</mask>
<clipPath id="clip57">
  <rect x="0" y="0" width="215" height="60"/>
</clipPath>
<g id="surface173" clip-path="url(#clip57)">
<path style=" stroke:none;fill-rule:evenodd;fill:rgb(99.607843%,100%,99.607843%);fill-opacity:1;" d="M 80.730469 55.800781 C 81.433594 55.800781 82.136719 55.800781 82.839844 55.800781 C 82.839844 56.984375 82.839844 58.171875 82.839844 59.355469 C 82.464844 59.355469 82.085938 59.355469 81.710938 59.355469 C 81.710938 58.449219 81.710938 57.539062 81.710938 56.632812 C 81.355469 56.632812 81.003906 56.632812 80.652344 56.632812 C 80.632812 56.347656 80.660156 56.070312 80.730469 55.800781 Z M 80.730469 55.800781 "/>
</g>
<mask id="mask57">
  <g filter="url(#alpha)">
<rect x="0" y="0" width="215" height="60" style="fill:rgb(0%,0%,0%);fill-opacity:0.921569;stroke:none;"/>
  </g>
</mask>
<clipPath id="clip58">
  <rect x="0" y="0" width="215" height="60"/>
</clipPath>
<g id="surface176" clip-path="url(#clip58)">
<path style=" stroke:none;fill-rule:evenodd;fill:rgb(99.607843%,100%,99.607843%);fill-opacity:1;" d="M 84.273438 55.800781 C 84.648438 55.800781 85.027344 55.800781 85.402344 55.800781 C 85.589844 56.476562 85.828125 57.132812 86.121094 57.769531 C 86.359375 57.136719 86.597656 56.507812 86.835938 55.875 C 87.214844 55.777344 87.589844 55.777344 87.96875 55.875 C 87.527344 57.003906 87.097656 58.140625 86.6875 59.28125 C 86.292969 59.378906 85.902344 59.378906 85.515625 59.28125 C 85.066406 58.132812 84.648438 56.972656 84.273438 55.800781 Z M 84.273438 55.800781 "/>
</g>
<mask id="mask58">
  <g filter="url(#alpha)">
<rect x="0" y="0" width="215" height="60" style="fill:rgb(0%,0%,0%);fill-opacity:0.917647;stroke:none;"/>
  </g>
</mask>
<clipPath id="clip59">
  <rect x="0" y="0" width="215" height="60"/>
</clipPath>
<g id="surface179" clip-path="url(#clip59)">
<path style=" stroke:none;fill-rule:evenodd;fill:rgb(99.607843%,100%,99.607843%);fill-opacity:1;" d="M 89.628906 55.800781 C 91.140625 55.605469 91.847656 56.261719 91.738281 57.769531 C 91.007812 57.769531 90.28125 57.769531 89.550781 57.769531 C 89.527344 58.109375 89.652344 58.375 89.929688 58.5625 C 90.027344 58.613281 90.128906 58.613281 90.230469 58.5625 C 90.46875 58.460938 90.667969 58.320312 90.832031 58.144531 C 91.152344 58.222656 91.453125 58.335938 91.738281 58.488281 C 91.140625 59.351562 90.335938 59.628906 89.324219 59.320312 C 88.769531 59.125 88.457031 58.734375 88.382812 58.144531 C 88.226562 57.375 88.414062 56.707031 88.949219 56.140625 C 89.160156 55.984375 89.386719 55.871094 89.628906 55.800781 Z M 89.855469 56.632812 C 90.03125 56.621094 90.207031 56.632812 90.382812 56.671875 C 90.496094 56.722656 90.570312 56.8125 90.609375 56.9375 C 90.285156 57.011719 89.957031 57.035156 89.628906 57.011719 C 89.613281 56.824219 89.6875 56.699219 89.855469 56.632812 Z M 89.855469 56.632812 "/>
</g>
<mask id="mask59">
  <g filter="url(#alpha)">
<rect x="0" y="0" width="215" height="60" style="fill:rgb(0%,0%,0%);fill-opacity:0.913725;stroke:none;"/>
  </g>
</mask>
<clipPath id="clip60">
  <rect x="0" y="0" width="215" height="60"/>
</clipPath>
<g id="surface182" clip-path="url(#clip60)">
<path style=" stroke:none;fill-rule:evenodd;fill:rgb(99.607843%,100%,99.607843%);fill-opacity:1;" d="M 92.265625 55.875 C 92.65625 55.800781 93.054688 55.777344 93.472656 55.800781 C 93.457031 55.890625 93.480469 55.964844 93.546875 56.027344 C 94.09375 55.742188 94.648438 55.730469 95.207031 55.988281 C 95.539062 56.21875 95.691406 56.53125 95.660156 56.9375 C 95.308594 56.949219 94.957031 56.9375 94.605469 56.898438 C 94.445312 56.558594 94.253906 56.546875 94.039062 56.859375 C 93.972656 56.980469 93.921875 57.105469 93.886719 57.238281 C 93.851562 57.945312 93.835938 58.648438 93.851562 59.355469 C 93.472656 59.355469 93.097656 59.355469 92.71875 59.355469 C 92.730469 58.625 92.71875 57.894531 92.679688 57.164062 C 92.644531 56.691406 92.507812 56.261719 92.265625 55.875 Z M 92.265625 55.875 "/>
</g>
<mask id="mask60">
  <g filter="url(#alpha)">
<rect x="0" y="0" width="215" height="60" style="fill:rgb(0%,0%,0%);fill-opacity:0.894118;stroke:none;"/>
  </g>
</mask>
<clipPath id="clip61">
  <rect x="0" y="0" width="215" height="60"/>
</clipPath>
<g id="surface185" clip-path="url(#clip61)">
<path style=" stroke:none;fill-rule:evenodd;fill:rgb(99.607843%,100%,99.607843%);fill-opacity:1;" d="M 103.957031 55.800781 C 104.320312 55.757812 104.660156 55.808594 104.972656 55.953125 C 105.414062 55.730469 105.84375 55.757812 106.253906 56.027344 C 106.757812 55.703125 107.234375 55.726562 107.6875 56.101562 C 107.714844 56.203125 107.738281 56.304688 107.765625 56.40625 C 107.800781 57.390625 107.816406 58.371094 107.800781 59.355469 C 107.476562 59.355469 107.148438 59.355469 106.820312 59.355469 C 106.847656 58.449219 106.820312 57.539062 106.746094 56.632812 C 106.628906 56.539062 106.515625 56.539062 106.40625 56.632812 C 106.367188 57.539062 106.355469 58.449219 106.367188 59.355469 C 106.042969 59.355469 105.714844 59.355469 105.386719 59.355469 C 105.414062 58.449219 105.386719 57.539062 105.3125 56.632812 C 105.195312 56.570312 105.082031 56.59375 104.972656 56.707031 C 104.9375 57.589844 104.921875 58.472656 104.9375 59.355469 C 104.609375 59.355469 104.28125 59.355469 103.957031 59.355469 C 103.957031 58.171875 103.957031 56.984375 103.957031 55.800781 Z M 103.957031 55.800781 "/>
</g>
<mask id="mask61">
  <g filter="url(#alpha)">
<rect x="0" y="0" width="215" height="60" style="fill:rgb(0%,0%,0%);fill-opacity:0.913725;stroke:none;"/>
  </g>
</mask>
<clipPath id="clip62">
  <rect x="0" y="0" width="215" height="60"/>
</clipPath>
<g id="surface188" clip-path="url(#clip62)">
<path style=" stroke:none;fill-rule:evenodd;fill:rgb(99.607843%,100%,99.607843%);fill-opacity:1;" d="M 113.082031 55.800781 C 115.019531 55.589844 115.785156 56.449219 115.378906 58.375 C 115.285156 58.996094 114.917969 59.335938 114.285156 59.394531 C 113.742188 59.472656 113.214844 59.425781 112.703125 59.242188 C 112.328125 58.980469 112.113281 58.613281 112.0625 58.144531 C 111.941406 57.433594 112.054688 56.765625 112.402344 56.140625 C 112.613281 55.984375 112.839844 55.871094 113.082031 55.800781 Z M 113.382812 56.632812 C 113.636719 56.621094 113.886719 56.632812 114.136719 56.671875 C 114.425781 57.25 114.4375 57.84375 114.175781 58.449219 C 113.71875 58.726562 113.390625 58.625 113.195312 58.144531 C 113.144531 57.742188 113.144531 57.339844 113.195312 56.9375 C 113.242188 56.824219 113.308594 56.722656 113.382812 56.632812 Z M 113.382812 56.632812 "/>
</g>
<mask id="mask62">
  <g filter="url(#alpha)">
<rect x="0" y="0" width="215" height="60" style="fill:rgb(0%,0%,0%);fill-opacity:0.913725;stroke:none;"/>
  </g>
</mask>
<clipPath id="clip63">
  <rect x="0" y="0" width="215" height="60"/>
</clipPath>
<g id="surface191" clip-path="url(#clip63)">
<path style=" stroke:none;fill-rule:evenodd;fill:rgb(99.607843%,100%,99.607843%);fill-opacity:1;" d="M 116.023438 55.800781 C 116.402344 55.777344 116.777344 55.800781 117.152344 55.875 C 117.175781 55.9375 117.214844 55.988281 117.265625 56.027344 C 117.761719 55.769531 118.277344 55.734375 118.8125 55.914062 C 119.195312 56.144531 119.371094 56.484375 119.339844 56.9375 C 118.988281 56.949219 118.632812 56.9375 118.285156 56.898438 C 118.125 56.558594 117.933594 56.546875 117.71875 56.859375 C 117.65625 57.03125 117.605469 57.210938 117.566406 57.390625 C 117.53125 58.042969 117.515625 58.699219 117.53125 59.355469 C 117.152344 59.355469 116.777344 59.355469 116.398438 59.355469 C 116.410156 58.574219 116.398438 57.792969 116.359375 57.011719 C 116.300781 56.589844 116.1875 56.1875 116.023438 55.800781 Z M 116.023438 55.800781 "/>
</g>
<mask id="mask63">
  <g filter="url(#alpha)">
<rect x="0" y="0" width="215" height="60" style="fill:rgb(0%,0%,0%);fill-opacity:0.909804;stroke:none;"/>
  </g>
</mask>
<clipPath id="clip64">
  <rect x="0" y="0" width="215" height="60"/>
</clipPath>
<g id="surface194" clip-path="url(#clip64)">
<path style=" stroke:none;fill-rule:evenodd;fill:rgb(99.607843%,100%,99.607843%);fill-opacity:1;" d="M 128.765625 55.800781 C 129.167969 55.789062 129.570312 55.800781 129.972656 55.839844 C 130.480469 55.871094 130.769531 56.136719 130.839844 56.632812 C 130.878906 57.539062 130.890625 58.449219 130.878906 59.355469 C 130.121094 59.292969 129.367188 59.28125 128.617188 59.320312 C 128.015625 59.085938 127.75 58.644531 127.824219 57.996094 C 127.871094 57.496094 128.132812 57.179688 128.617188 57.050781 C 128.992188 57.011719 129.367188 57 129.746094 57.011719 C 129.777344 56.820312 129.726562 56.65625 129.597656 56.519531 C 129.054688 56.601562 128.503906 56.640625 127.9375 56.632812 C 128.039062 56.175781 128.316406 55.898438 128.765625 55.800781 Z M 129.066406 57.691406 C 129.292969 57.691406 129.519531 57.691406 129.746094 57.691406 C 129.769531 57.972656 129.746094 58.25 129.671875 58.523438 C 128.957031 58.640625 128.757812 58.363281 129.066406 57.691406 Z M 129.066406 57.691406 "/>
</g>
<mask id="mask64">
  <g filter="url(#alpha)">
<rect x="0" y="0" width="215" height="60" style="fill:rgb(0%,0%,0%);fill-opacity:0.941176;stroke:none;"/>
  </g>
</mask>
<clipPath id="clip65">
  <rect x="0" y="0" width="215" height="60"/>
</clipPath>
<g id="surface197" clip-path="url(#clip65)">
<path style=" stroke:none;fill-rule:evenodd;fill:rgb(99.607843%,100%,99.607843%);fill-opacity:1;" d="M 131.859375 55.800781 C 132.261719 55.761719 132.652344 55.8125 133.027344 55.953125 C 133.691406 55.746094 134.308594 55.847656 134.875 56.253906 C 134.9375 56.378906 135 56.507812 135.0625 56.632812 C 135.101562 57.539062 135.113281 58.449219 135.101562 59.355469 C 134.722656 59.355469 134.347656 59.355469 133.96875 59.355469 C 133.984375 58.5 133.96875 57.640625 133.933594 56.785156 C 133.675781 56.636719 133.410156 56.648438 133.140625 56.820312 C 133.046875 56.945312 132.984375 57.085938 132.953125 57.238281 C 132.914062 57.945312 132.902344 58.648438 132.914062 59.355469 C 132.5625 59.355469 132.210938 59.355469 131.859375 59.355469 C 131.859375 58.171875 131.859375 56.984375 131.859375 55.800781 Z M 131.859375 55.800781 "/>
</g>
<mask id="mask65">
  <g filter="url(#alpha)">
<rect x="0" y="0" width="215" height="60" style="fill:rgb(0%,0%,0%);fill-opacity:0.921569;stroke:none;"/>
  </g>
</mask>
<clipPath id="clip66">
  <rect x="0" y="0" width="215" height="60"/>
</clipPath>
<g id="surface200" clip-path="url(#clip66)">
<path style=" stroke:none;fill-rule:evenodd;fill:rgb(99.607843%,100%,99.607843%);fill-opacity:1;" d="M 147.621094 55.875 C 148.058594 55.777344 148.511719 55.777344 148.976562 55.875 C 149.074219 56.0625 149.1875 56.238281 149.316406 56.40625 C 149.453125 56.21875 149.59375 56.027344 149.730469 55.839844 C 150.160156 55.789062 150.585938 55.789062 151.011719 55.839844 C 150.671875 56.363281 150.316406 56.878906 149.957031 57.390625 C 150.359375 58.019531 150.761719 58.652344 151.164062 59.28125 C 150.738281 59.371094 150.3125 59.382812 149.882812 59.320312 C 149.707031 59.007812 149.507812 58.714844 149.277344 58.449219 C 149.085938 58.746094 148.886719 59.035156 148.675781 59.320312 C 148.246094 59.371094 147.820312 59.371094 147.394531 59.320312 C 147.820312 58.6875 148.246094 58.058594 148.675781 57.425781 C 148.332031 56.898438 147.980469 56.382812 147.621094 55.875 Z M 147.621094 55.875 "/>
</g>
<mask id="mask66">
  <g filter="url(#alpha)">
<rect x="0" y="0" width="215" height="60" style="fill:rgb(0%,0%,0%);fill-opacity:0.913725;stroke:none;"/>
  </g>
</mask>
<clipPath id="clip67">
  <rect x="0" y="0" width="215" height="60"/>
</clipPath>
<g id="surface203" clip-path="url(#clip67)">
<path style=" stroke:none;fill-rule:evenodd;fill:rgb(99.607843%,100%,99.607843%);fill-opacity:1;" d="M 156.519531 55.800781 C 157.109375 55.757812 157.6875 55.820312 158.253906 55.988281 C 158.742188 56.402344 158.96875 56.929688 158.929688 57.578125 C 158.894531 57.949219 158.832031 58.316406 158.742188 58.675781 C 158.558594 59.128906 158.21875 59.367188 157.722656 59.394531 C 156.214844 59.6875 155.460938 59.070312 155.460938 57.539062 C 155.378906 56.671875 155.730469 56.089844 156.519531 55.800781 Z M 156.894531 56.632812 C 157.121094 56.621094 157.347656 56.632812 157.574219 56.671875 C 157.613281 56.707031 157.648438 56.746094 157.6875 56.785156 C 157.835938 57.3125 157.835938 57.84375 157.6875 58.375 C 157.359375 58.675781 157.03125 58.675781 156.707031 58.375 C 156.59375 57.925781 156.570312 57.46875 156.632812 57.011719 C 156.652344 56.828125 156.738281 56.703125 156.894531 56.632812 Z M 156.894531 56.632812 "/>
</g>
<mask id="mask67">
  <g filter="url(#alpha)">
<rect x="0" y="0" width="215" height="60" style="fill:rgb(0%,0%,0%);fill-opacity:0.909804;stroke:none;"/>
  </g>
</mask>
<clipPath id="clip68">
  <rect x="0" y="0" width="215" height="60"/>
</clipPath>
<g id="surface206" clip-path="url(#clip68)">
<path style=" stroke:none;fill-rule:evenodd;fill:rgb(99.607843%,100%,99.607843%);fill-opacity:1;" d="M 159.457031 55.800781 C 159.839844 55.777344 160.214844 55.800781 160.589844 55.875 C 160.613281 55.9375 160.652344 55.988281 160.703125 56.027344 C 161.199219 55.773438 161.714844 55.738281 162.25 55.914062 C 162.632812 56.144531 162.808594 56.484375 162.777344 56.9375 C 162.425781 56.949219 162.070312 56.9375 161.722656 56.898438 C 161.65625 56.820312 161.632812 56.734375 161.644531 56.632812 C 161.339844 56.625 161.148438 56.777344 161.082031 57.085938 C 160.980469 57.839844 160.941406 58.597656 160.96875 59.355469 C 160.589844 59.355469 160.214844 59.355469 159.835938 59.355469 C 159.847656 58.550781 159.835938 57.742188 159.796875 56.9375 C 159.722656 56.542969 159.609375 56.164062 159.457031 55.800781 Z M 159.457031 55.800781 "/>
</g>
<mask id="mask68">
  <g filter="url(#alpha)">
<rect x="0" y="0" width="215" height="60" style="fill:rgb(0%,0%,0%);fill-opacity:0.913725;stroke:none;"/>
  </g>
</mask>
<clipPath id="clip69">
  <rect x="0" y="0" width="215" height="60"/>
</clipPath>
<g id="surface209" clip-path="url(#clip69)">
<path style=" stroke:none;fill-rule:evenodd;fill:rgb(99.607843%,100%,99.607843%);fill-opacity:1;" d="M 176.277344 55.800781 C 178.21875 55.59375 178.984375 56.453125 178.574219 58.375 C 178.476562 58.996094 178.113281 59.335938 177.484375 59.394531 C 175.972656 59.683594 175.21875 59.066406 175.21875 57.539062 C 175.136719 56.675781 175.488281 56.09375 176.277344 55.800781 Z M 176.652344 56.632812 C 176.878906 56.621094 177.105469 56.632812 177.332031 56.671875 C 177.371094 56.707031 177.40625 56.746094 177.445312 56.785156 C 177.59375 57.3125 177.59375 57.84375 177.445312 58.375 C 177.21875 58.582031 176.957031 58.644531 176.652344 58.5625 C 176.503906 58.460938 176.414062 58.324219 176.390625 58.144531 C 176.339844 57.742188 176.339844 57.339844 176.390625 56.9375 C 176.441406 56.796875 176.527344 56.695312 176.652344 56.632812 Z M 176.652344 56.632812 "/>
</g>
<mask id="mask69">
  <g filter="url(#alpha)">
<rect x="0" y="0" width="215" height="60" style="fill:rgb(0%,0%,0%);fill-opacity:0.909804;stroke:none;"/>
  </g>
</mask>
<clipPath id="clip70">
  <rect x="0" y="0" width="215" height="60"/>
</clipPath>
<g id="surface212" clip-path="url(#clip70)">
<path style=" stroke:none;fill-rule:evenodd;fill:rgb(99.607843%,100%,99.607843%);fill-opacity:1;" d="M 179.21875 55.800781 C 179.597656 55.777344 179.972656 55.800781 180.347656 55.875 C 180.371094 55.9375 180.410156 55.988281 180.460938 56.027344 C 180.875 55.8125 181.316406 55.75 181.78125 55.839844 C 182.320312 56 182.570312 56.367188 182.535156 56.9375 C 182.183594 56.949219 181.828125 56.9375 181.480469 56.898438 C 181.367188 56.609375 181.203125 56.570312 180.988281 56.785156 C 180.855469 56.992188 180.78125 57.21875 180.761719 57.464844 C 180.726562 58.09375 180.710938 58.726562 180.726562 59.355469 C 180.347656 59.355469 179.972656 59.355469 179.59375 59.355469 C 179.605469 58.550781 179.59375 57.742188 179.554688 56.9375 C 179.480469 56.542969 179.367188 56.164062 179.21875 55.800781 Z M 179.21875 55.800781 "/>
</g>
<mask id="mask70">
  <g filter="url(#alpha)">
<rect x="0" y="0" width="215" height="60" style="fill:rgb(0%,0%,0%);fill-opacity:0.909804;stroke:none;"/>
  </g>
</mask>
<clipPath id="clip71">
  <rect x="0" y="0" width="215" height="60"/>
</clipPath>
<g id="surface215" clip-path="url(#clip71)">
<path style=" stroke:none;fill-rule:evenodd;fill:rgb(99.607843%,100%,99.607843%);fill-opacity:1;" d="M 188.117188 55.800781 C 189.851562 55.527344 190.644531 56.257812 190.492188 57.996094 C 190.492188 58.761719 190.128906 59.230469 189.398438 59.394531 C 187.867188 59.710938 187.085938 59.09375 187.058594 57.539062 C 186.976562 56.671875 187.328125 56.09375 188.117188 55.800781 Z M 188.492188 56.632812 C 188.71875 56.621094 188.945312 56.632812 189.171875 56.671875 C 189.277344 56.757812 189.339844 56.871094 189.359375 57.011719 C 189.421875 57.46875 189.394531 57.925781 189.285156 58.375 C 188.953125 58.671875 188.625 58.671875 188.304688 58.375 C 188.191406 57.925781 188.167969 57.46875 188.230469 57.011719 C 188.25 56.828125 188.335938 56.703125 188.492188 56.632812 Z M 188.492188 56.632812 "/>
</g>
<mask id="mask71">
  <g filter="url(#alpha)">
<rect x="0" y="0" width="215" height="60" style="fill:rgb(0%,0%,0%);fill-opacity:0.909804;stroke:none;"/>
  </g>
</mask>
<clipPath id="clip72">
  <rect x="0" y="0" width="215" height="60"/>
</clipPath>
<g id="surface218" clip-path="url(#clip72)">
<path style=" stroke:none;fill-rule:evenodd;fill:rgb(99.607843%,100%,99.607843%);fill-opacity:1;" d="M 191.058594 55.800781 C 191.433594 55.789062 191.8125 55.800781 192.1875 55.839844 C 192.234375 55.894531 192.273438 55.957031 192.300781 56.027344 C 192.859375 55.742188 193.425781 55.726562 193.996094 55.988281 C 194.722656 56.917969 194.496094 57.207031 193.320312 56.859375 C 193.195312 56.589844 193.03125 56.5625 192.828125 56.785156 C 192.6875 57.015625 192.613281 57.269531 192.601562 57.539062 C 192.566406 58.144531 192.550781 58.75 192.566406 59.355469 C 192.1875 59.355469 191.8125 59.355469 191.433594 59.355469 C 191.445312 58.523438 191.433594 57.691406 191.394531 56.859375 C 191.304688 56.5 191.191406 56.144531 191.058594 55.800781 Z M 191.058594 55.800781 "/>
</g>
<mask id="mask72">
  <g filter="url(#alpha)">
<rect x="0" y="0" width="215" height="60" style="fill:rgb(0%,0%,0%);fill-opacity:0.917647;stroke:none;"/>
  </g>
</mask>
<clipPath id="clip73">
  <rect x="0" y="0" width="215" height="60"/>
</clipPath>
<g id="surface221" clip-path="url(#clip73)">
<path style=" stroke:none;fill-rule:evenodd;fill:rgb(99.607843%,100%,99.607843%);fill-opacity:1;" d="M 195.882812 55.800781 C 196.285156 55.789062 196.6875 55.800781 197.089844 55.839844 C 197.402344 55.886719 197.664062 56.027344 197.882812 56.253906 C 197.992188 57.28125 198.027344 58.316406 197.996094 59.355469 C 197.238281 59.292969 196.484375 59.28125 195.730469 59.320312 C 194.957031 58.894531 194.769531 58.277344 195.167969 57.464844 C 195.324219 57.242188 195.539062 57.101562 195.808594 57.050781 C 196.160156 57.011719 196.511719 57 196.863281 57.011719 C 196.894531 56.816406 196.84375 56.652344 196.710938 56.519531 C 196.363281 56.582031 195.996094 56.621094 195.617188 56.632812 C 194.957031 56.714844 194.867188 56.523438 195.355469 56.066406 C 195.539062 55.972656 195.714844 55.886719 195.882812 55.800781 Z M 196.261719 57.691406 C 196.460938 57.691406 196.660156 57.691406 196.863281 57.691406 C 196.886719 57.972656 196.863281 58.25 196.789062 58.523438 C 196.183594 58.6875 195.96875 58.460938 196.148438 57.84375 C 196.203125 57.800781 196.238281 57.753906 196.261719 57.691406 Z M 196.261719 57.691406 "/>
</g>
<mask id="mask73">
  <g filter="url(#alpha)">
<rect x="0" y="0" width="215" height="60" style="fill:rgb(0%,0%,0%);fill-opacity:0.905882;stroke:none;"/>
  </g>
</mask>
<clipPath id="clip74">
  <rect x="0" y="0" width="215" height="60"/>
</clipPath>
<g id="surface224" clip-path="url(#clip74)">
<path style=" stroke:none;fill-rule:evenodd;fill:rgb(99.607843%,100%,99.607843%);fill-opacity:1;" d="M 203.199219 55.800781 C 203.894531 55.777344 204.585938 55.800781 205.273438 55.875 C 205.308594 57.035156 205.324219 58.195312 205.308594 59.355469 C 204.933594 59.355469 204.554688 59.355469 204.179688 59.355469 C 204.179688 58.449219 204.179688 57.539062 204.179688 56.632812 C 203.828125 56.632812 203.476562 56.632812 203.121094 56.632812 C 203.101562 56.347656 203.128906 56.070312 203.199219 55.800781 Z M 203.199219 55.800781 "/>
</g>
<mask id="mask74">
  <g filter="url(#alpha)">
<rect x="0" y="0" width="215" height="60" style="fill:rgb(0%,0%,0%);fill-opacity:0.913725;stroke:none;"/>
  </g>
</mask>
<clipPath id="clip75">
  <rect x="0" y="0" width="215" height="60"/>
</clipPath>
<g id="surface227" clip-path="url(#clip75)">
<path style=" stroke:none;fill-rule:evenodd;fill:rgb(99.607843%,100%,99.607843%);fill-opacity:1;" d="M 207.875 55.800781 C 209.816406 55.59375 210.582031 56.449219 210.171875 58.375 C 210.074219 58.996094 209.710938 59.335938 209.082031 59.394531 C 207.863281 59.710938 207.121094 59.269531 206.855469 58.070312 C 206.804688 57.585938 206.828125 57.109375 206.929688 56.632812 C 207.121094 56.203125 207.4375 55.925781 207.875 55.800781 Z M 208.25 56.632812 C 208.476562 56.621094 208.703125 56.632812 208.929688 56.671875 C 209.21875 57.25 209.230469 57.84375 208.96875 58.449219 C 208.511719 58.726562 208.183594 58.625 207.988281 58.144531 C 207.9375 57.769531 207.9375 57.390625 207.988281 57.011719 C 208.007812 56.828125 208.09375 56.703125 208.25 56.632812 Z M 208.25 56.632812 "/>
</g>
<mask id="mask75">
  <g filter="url(#alpha)">
<rect x="0" y="0" width="215" height="60" style="fill:rgb(0%,0%,0%);fill-opacity:0.917647;stroke:none;"/>
  </g>
</mask>
<clipPath id="clip76">
  <rect x="0" y="0" width="215" height="60"/>
</clipPath>
<g id="surface230" clip-path="url(#clip76)">
<path style=" stroke:none;fill-rule:evenodd;fill:rgb(99.607843%,100%,99.607843%);fill-opacity:1;" d="M 210.816406 55.800781 C 211.242188 55.761719 211.660156 55.8125 212.058594 55.953125 C 212.546875 55.792969 213.039062 55.804688 213.53125 55.988281 C 213.863281 56.148438 214.054688 56.414062 214.09375 56.785156 C 214.132812 57.640625 214.144531 58.5 214.132812 59.355469 C 213.753906 59.355469 213.378906 59.355469 213 59.355469 C 213.015625 58.523438 213 57.691406 212.964844 56.859375 C 212.726562 56.589844 212.460938 56.578125 212.171875 56.820312 C 212.082031 56.890625 212.019531 56.980469 211.984375 57.085938 C 211.945312 57.84375 211.933594 58.601562 211.945312 59.355469 C 211.570312 59.355469 211.191406 59.355469 210.816406 59.355469 C 210.816406 58.171875 210.816406 56.984375 210.816406 55.800781 Z M 210.816406 55.800781 "/>
</g>
</defs>
<g id="surface1">
<use xlink:href="#surface5" mask="url(#mask0)"/>
<use xlink:href="#surface8" mask="url(#mask1)"/>
<use xlink:href="#surface11" mask="url(#mask2)"/>
<use xlink:href="#surface14" mask="url(#mask3)"/>
<use xlink:href="#surface17" mask="url(#mask4)"/>
<use xlink:href="#surface20" mask="url(#mask5)"/>
<use xlink:href="#surface23" mask="url(#mask6)"/>
<use xlink:href="#surface26" mask="url(#mask7)"/>
<use xlink:href="#surface29" mask="url(#mask8)"/>
<use xlink:href="#surface32" mask="url(#mask9)"/>
<use xlink:href="#surface35" mask="url(#mask10)"/>
<use xlink:href="#surface38" mask="url(#mask11)"/>
<use xlink:href="#surface41" mask="url(#mask12)"/>
<use xlink:href="#surface44" mask="url(#mask13)"/>
<use xlink:href="#surface47" mask="url(#mask14)"/>
<use xlink:href="#surface50" mask="url(#mask15)"/>
<use xlink:href="#surface53" mask="url(#mask16)"/>
<use xlink:href="#surface56" mask="url(#mask17)"/>
<use xlink:href="#surface59" mask="url(#mask18)"/>
<use xlink:href="#surface62" mask="url(#mask19)"/>
<use xlink:href="#surface65" mask="url(#mask20)"/>
<use xlink:href="#surface68" mask="url(#mask21)"/>
<use xlink:href="#surface71" mask="url(#mask22)"/>
<use xlink:href="#surface74" mask="url(#mask23)"/>
<use xlink:href="#surface77" mask="url(#mask24)"/>
<use xlink:href="#surface80" mask="url(#mask25)"/>
<use xlink:href="#surface83" mask="url(#mask26)"/>
<use xlink:href="#surface86" mask="url(#mask27)"/>
<use xlink:href="#surface89" mask="url(#mask28)"/>
<use xlink:href="#surface92" mask="url(#mask29)"/>
<use xlink:href="#surface95" mask="url(#mask30)"/>
<use xlink:href="#surface98" mask="url(#mask31)"/>
<use xlink:href="#surface101" mask="url(#mask32)"/>
<use xlink:href="#surface104" mask="url(#mask33)"/>
<use xlink:href="#surface107" mask="url(#mask34)"/>
<use xlink:href="#surface110" mask="url(#mask35)"/>
<use xlink:href="#surface113" mask="url(#mask36)"/>
<use xlink:href="#surface116" mask="url(#mask37)"/>
<use xlink:href="#surface119" mask="url(#mask38)"/>
<use xlink:href="#surface122" mask="url(#mask39)"/>
<use xlink:href="#surface125" mask="url(#mask40)"/>
<use xlink:href="#surface128" mask="url(#mask41)"/>
<use xlink:href="#surface131" mask="url(#mask42)"/>
<use xlink:href="#surface134" mask="url(#mask43)"/>
<use xlink:href="#surface137" mask="url(#mask44)"/>
<use xlink:href="#surface140" mask="url(#mask45)"/>
<use xlink:href="#surface143" mask="url(#mask46)"/>
<use xlink:href="#surface146" mask="url(#mask47)"/>
<use xlink:href="#surface149" mask="url(#mask48)"/>
<use xlink:href="#surface152" mask="url(#mask49)"/>
<use xlink:href="#surface155" mask="url(#mask50)"/>
<use xlink:href="#surface158" mask="url(#mask51)"/>
<use xlink:href="#surface161" mask="url(#mask52)"/>
<use xlink:href="#surface164" mask="url(#mask53)"/>
<use xlink:href="#surface167" mask="url(#mask54)"/>
<use xlink:href="#surface170" mask="url(#mask55)"/>
<use xlink:href="#surface173" mask="url(#mask56)"/>
<use xlink:href="#surface176" mask="url(#mask57)"/>
<use xlink:href="#surface179" mask="url(#mask58)"/>
<use xlink:href="#surface182" mask="url(#mask59)"/>
<use xlink:href="#surface185" mask="url(#mask60)"/>
<use xlink:href="#surface188" mask="url(#mask61)"/>
<use xlink:href="#surface191" mask="url(#mask62)"/>
<use xlink:href="#surface194" mask="url(#mask63)"/>
<use xlink:href="#surface197" mask="url(#mask64)"/>
<use xlink:href="#surface200" mask="url(#mask65)"/>
<use xlink:href="#surface203" mask="url(#mask66)"/>
<use xlink:href="#surface206" mask="url(#mask67)"/>
<use xlink:href="#surface209" mask="url(#mask68)"/>
<use xlink:href="#surface212" mask="url(#mask69)"/>
<use xlink:href="#surface215" mask="url(#mask70)"/>
<use xlink:href="#surface218" mask="url(#mask71)"/>
<use xlink:href="#surface221" mask="url(#mask72)"/>
<use xlink:href="#surface224" mask="url(#mask73)"/>
<use xlink:href="#surface227" mask="url(#mask74)"/>
<use xlink:href="#surface230" mask="url(#mask75)"/>
</g>
</svg>
