<svg width="16" height="16" viewBox="0 0 16 16" fill="none" xmlns="http://www.w3.org/2000/svg">
<path d="M8 7.9751C6.9 7.9751 6 7.6251 5.3 6.9251C4.6 6.2251 4.25 5.3251 4.25 4.2251C4.25 3.1251 4.6 2.2251 5.3 1.5251C6 0.825098 6.9 0.475098 8 0.475098C9.1 0.475098 10 0.825098 10.7 1.5251C11.4 2.2251 11.75 3.1251 11.75 4.2251C11.75 5.3251 11.4 6.2251 10.7 6.9251C10 7.6251 9.1 7.9751 8 7.9751ZM0 16.0001V13.6501C0 13.0168 0.158333 12.4751 0.475 12.0251C0.791667 11.5751 1.2 11.2334 1.7 11.0001C2.81667 10.5001 3.8875 10.1251 4.9125 9.8751C5.9375 9.6251 6.96667 9.5001 8 9.5001C9.03333 9.5001 10.0583 9.62926 11.075 9.8876C12.0917 10.1459 13.1583 10.5168 14.275 11.0001C14.7917 11.2334 15.2083 11.5751 15.525 12.0251C15.8417 12.4751 16 13.0168 16 13.6501V16.0001H0Z" fill="#203253"/>
</svg>
