<svg width="20" height="16" viewBox="0 0 20 16" fill="none" xmlns="http://www.w3.org/2000/svg">
<path d="M2.20833 15.3332C1.84166 15.3332 1.52083 15.1957 1.24583 14.9207C0.970828 14.6457 0.833328 14.3248 0.833328 13.9582V2.0415C0.833328 1.67484 0.970828 1.354 1.24583 1.079C1.52083 0.804004 1.84166 0.666504 2.20833 0.666504H17.7917C18.1583 0.666504 18.4792 0.804004 18.7542 1.079C19.0292 1.354 19.1667 1.67484 19.1667 2.0415V13.9582C19.1667 14.3248 19.0292 14.6457 18.7542 14.9207C18.4792 15.1957 18.1583 15.3332 17.7917 15.3332H2.20833ZM10 8.41234L17.7917 3.30192V2.0415L10 7.03734L2.20833 2.0415V3.30192L10 8.41234Z" fill="#203253"/>
</svg>
