<svg width="18" height="22" viewBox="0 0 18 22" fill="none" xmlns="http://www.w3.org/2000/svg">
<path d="M8.994 10.9C9.5148 10.9 9.9627 10.7145 10.3377 10.3437C10.7127 9.97278 10.9002 9.52695 10.9002 9.00615C10.9002 8.48535 10.7148 8.03745 10.3439 7.66245C9.97303 7.28745 9.52719 7.09995 9.0064 7.09995C8.4856 7.09995 8.0377 7.28539 7.6627 7.65625C7.2877 8.02712 7.1002 8.47295 7.1002 8.99375C7.1002 9.51455 7.28563 9.96245 7.6565 10.3375C8.02736 10.7125 8.4732 10.9 8.994 10.9ZM9.0002 18.45C11.0728 16.5444 12.6035 14.8161 13.5922 13.2652C14.5809 11.7142 15.0752 10.3565 15.0752 9.19188C15.0752 7.35559 14.4893 5.85203 13.3176 4.6812C12.1459 3.51037 10.7086 2.92495 9.00585 2.92495C7.30305 2.92495 5.8639 3.51088 4.68842 4.68275C3.51294 5.8546 2.9252 7.35948 2.9252 9.19738C2.9252 10.3658 3.43225 11.7213 4.44635 13.2639C5.46045 14.8065 6.9784 16.5352 9.0002 18.45ZM9.00645 21.025C8.81895 21.025 8.6377 20.9958 8.4627 20.9375C8.2877 20.8791 8.13353 20.7916 8.0002 20.675C5.5002 18.4425 3.6377 16.3811 2.4127 14.4907C1.1877 12.6004 0.575195 10.8368 0.575195 9.19995C0.575195 6.57038 1.42185 4.47549 3.11517 2.91528C4.80849 1.35506 6.7694 0.574951 8.9979 0.574951C11.2264 0.574951 13.1881 1.35506 14.8829 2.91528C16.5778 4.47549 17.4252 6.57038 17.4252 9.19995C17.4252 10.8333 16.8127 12.596 15.5877 14.4881C14.3627 16.3802 12.5002 18.4425 10.0002 20.675C9.86686 20.7916 9.71478 20.8791 9.54395 20.9375C9.37311 20.9958 9.19395 21.025 9.00645 21.025Z" fill="#203253"/>
</svg>
