<svg width="90" height="18" viewBox="0 0 90 18" fill="none" xmlns="http://www.w3.org/2000/svg">
<path d="M8.99994 13.7063L5.51244 15.8063C5.41244 15.8688 5.30619 15.897 5.19369 15.8907C5.08119 15.8845 4.98119 15.8501 4.89369 15.7876C4.80619 15.7251 4.74057 15.6438 4.69682 15.5438C4.65307 15.4438 4.64369 15.3313 4.66869 15.2063L5.58744 11.2313L2.51244 8.5501C2.41244 8.4626 2.35307 8.36572 2.33432 8.25947C2.31557 8.15322 2.31869 8.0501 2.34369 7.9501C2.36869 7.8501 2.42494 7.76572 2.51244 7.69697C2.59994 7.62822 2.70619 7.5876 2.83119 7.5751L6.89994 7.21885L8.47494 3.46885C8.52494 3.35635 8.59994 3.27197 8.69994 3.21572C8.79994 3.15947 8.89994 3.13135 8.99994 3.13135C9.09994 3.13135 9.19994 3.15947 9.29994 3.21572C9.39994 3.27197 9.47494 3.35635 9.52494 3.46885L11.0999 7.21885L15.1687 7.5751C15.2937 7.5876 15.3999 7.62822 15.4874 7.69697C15.5749 7.76572 15.6312 7.8501 15.6562 7.9501C15.6812 8.0501 15.6843 8.15322 15.6656 8.25947C15.6468 8.36572 15.5874 8.4626 15.4874 8.5501L12.4124 11.2313L13.3312 15.2063C13.3562 15.3313 13.3468 15.4438 13.3031 15.5438C13.2593 15.6438 13.1937 15.7251 13.1062 15.7876C13.0187 15.8501 12.9187 15.8845 12.8062 15.8907C12.6937 15.897 12.5874 15.8688 12.4874 15.8063L8.99994 13.7063Z" fill="#72B3EA"/>
<path d="M26.9999 13.7063L23.5124 15.8063C23.4124 15.8688 23.3062 15.897 23.1937 15.8907C23.0812 15.8845 22.9812 15.8501 22.8937 15.7876C22.8062 15.7251 22.7406 15.6438 22.6968 15.5438C22.6531 15.4438 22.6437 15.3313 22.6687 15.2063L23.5874 11.2313L20.5124 8.5501C20.4124 8.4626 20.3531 8.36572 20.3343 8.25947C20.3156 8.15322 20.3187 8.0501 20.3437 7.9501C20.3687 7.8501 20.4249 7.76572 20.5124 7.69697C20.5999 7.62822 20.7062 7.5876 20.8312 7.5751L24.8999 7.21885L26.4749 3.46885C26.5249 3.35635 26.5999 3.27197 26.6999 3.21572C26.7999 3.15947 26.8999 3.13135 26.9999 3.13135C27.0999 3.13135 27.1999 3.15947 27.2999 3.21572C27.3999 3.27197 27.4749 3.35635 27.5249 3.46885L29.0999 7.21885L33.1687 7.5751C33.2937 7.5876 33.3999 7.62822 33.4874 7.69697C33.5749 7.76572 33.6312 7.8501 33.6562 7.9501C33.6812 8.0501 33.6843 8.15322 33.6656 8.25947C33.6468 8.36572 33.5874 8.4626 33.4874 8.5501L30.4124 11.2313L31.3312 15.2063C31.3562 15.3313 31.3468 15.4438 31.3031 15.5438C31.2593 15.6438 31.1937 15.7251 31.1062 15.7876C31.0187 15.8501 30.9187 15.8845 30.8062 15.8907C30.6937 15.897 30.5874 15.8688 30.4874 15.8063L26.9999 13.7063Z" fill="#72B3EA"/>
<path d="M44.9999 13.7063L41.5124 15.8063C41.4124 15.8688 41.3062 15.897 41.1937 15.8907C41.0812 15.8845 40.9812 15.8501 40.8937 15.7876C40.8062 15.7251 40.7406 15.6438 40.6968 15.5438C40.6531 15.4438 40.6437 15.3313 40.6687 15.2063L41.5874 11.2313L38.5124 8.5501C38.4124 8.4626 38.3531 8.36572 38.3343 8.25947C38.3156 8.15322 38.3187 8.0501 38.3437 7.9501C38.3687 7.8501 38.4249 7.76572 38.5124 7.69697C38.5999 7.62822 38.7062 7.5876 38.8312 7.5751L42.8999 7.21885L44.4749 3.46885C44.5249 3.35635 44.5999 3.27197 44.6999 3.21572C44.7999 3.15947 44.8999 3.13135 44.9999 3.13135C45.0999 3.13135 45.1999 3.15947 45.2999 3.21572C45.3999 3.27197 45.4749 3.35635 45.5249 3.46885L47.0999 7.21885L51.1687 7.5751C51.2937 7.5876 51.3999 7.62822 51.4874 7.69697C51.5749 7.76572 51.6312 7.8501 51.6562 7.9501C51.6812 8.0501 51.6843 8.15322 51.6656 8.25947C51.6468 8.36572 51.5874 8.4626 51.4874 8.5501L48.4124 11.2313L49.3312 15.2063C49.3562 15.3313 49.3468 15.4438 49.3031 15.5438C49.2593 15.6438 49.1937 15.7251 49.1062 15.7876C49.0187 15.8501 48.9187 15.8845 48.8062 15.8907C48.6937 15.897 48.5874 15.8688 48.4874 15.8063L44.9999 13.7063Z" fill="#72B3EA"/>
<path d="M62.9999 13.7063L59.5124 15.8063C59.4124 15.8688 59.3062 15.897 59.1937 15.8907C59.0812 15.8845 58.9812 15.8501 58.8937 15.7876C58.8062 15.7251 58.7406 15.6438 58.6968 15.5438C58.6531 15.4438 58.6437 15.3313 58.6687 15.2063L59.5874 11.2313L56.5124 8.5501C56.4124 8.4626 56.3531 8.36572 56.3343 8.25947C56.3156 8.15322 56.3187 8.0501 56.3437 7.9501C56.3687 7.8501 56.4249 7.76572 56.5124 7.69697C56.5999 7.62822 56.7062 7.5876 56.8312 7.5751L60.8999 7.21885L62.4749 3.46885C62.5249 3.35635 62.5999 3.27197 62.6999 3.21572C62.7999 3.15947 62.8999 3.13135 62.9999 3.13135C63.0999 3.13135 63.1999 3.15947 63.2999 3.21572C63.3999 3.27197 63.4749 3.35635 63.5249 3.46885L65.0999 7.21885L69.1687 7.5751C69.2937 7.5876 69.3999 7.62822 69.4874 7.69697C69.5749 7.76572 69.6312 7.8501 69.6562 7.9501C69.6812 8.0501 69.6843 8.15322 69.6656 8.25947C69.6468 8.36572 69.5874 8.4626 69.4874 8.5501L66.4124 11.2313L67.3312 15.2063C67.3562 15.3313 67.3468 15.4438 67.3031 15.5438C67.2593 15.6438 67.1937 15.7251 67.1062 15.7876C67.0187 15.8501 66.9187 15.8845 66.8062 15.8907C66.6937 15.897 66.5874 15.8688 66.4874 15.8063L62.9999 13.7063Z" fill="#72B3EA"/>
<path d="M80.9999 13.7063L77.5124 15.8063C77.4124 15.8688 77.3062 15.897 77.1937 15.8907C77.0812 15.8845 76.9812 15.8501 76.8937 15.7876C76.8062 15.7251 76.7406 15.6438 76.6968 15.5438C76.6531 15.4438 76.6437 15.3313 76.6687 15.2063L77.5874 11.2313L74.5124 8.5501C74.4124 8.4626 74.3531 8.36572 74.3343 8.25947C74.3156 8.15322 74.3187 8.0501 74.3437 7.9501C74.3687 7.8501 74.4249 7.76572 74.5124 7.69697C74.5999 7.62822 74.7062 7.5876 74.8312 7.5751L78.8999 7.21885L80.4749 3.46885C80.5249 3.35635 80.5999 3.27197 80.6999 3.21572C80.7999 3.15947 80.8999 3.13135 80.9999 3.13135C81.0999 3.13135 81.1999 3.15947 81.2999 3.21572C81.3999 3.27197 81.4749 3.35635 81.5249 3.46885L83.0999 7.21885L87.1687 7.5751C87.2937 7.5876 87.3999 7.62822 87.4874 7.69697C87.5749 7.76572 87.6312 7.8501 87.6562 7.9501C87.6812 8.0501 87.6843 8.15322 87.6656 8.25947C87.6468 8.36572 87.5874 8.4626 87.4874 8.5501L84.4124 11.2313L85.3312 15.2063C85.3562 15.3313 85.3468 15.4438 85.3031 15.5438C85.2593 15.6438 85.1937 15.7251 85.1062 15.7876C85.0187 15.8501 84.9187 15.8845 84.8062 15.8907C84.6937 15.897 84.5874 15.8688 84.4874 15.8063L80.9999 13.7063Z" fill="#72B3EA"/>
</svg>
