<svg width="40" height="40" viewBox="0 0 40 40" fill="none" xmlns="http://www.w3.org/2000/svg">
<path d="M2.45233 17.4201C2.45233 17.4201 20.1434 8.63935 26.2789 5.54743C28.631 4.31077 36.6072 0.353096 36.6072 0.353096C36.6072 0.353096 40.2887 -1.37823 39.9818 2.8266C39.8795 4.5581 39.0615 10.618 38.2434 17.1728C37.0162 26.4483 35.6869 36.5895 35.6869 36.5895C35.6869 36.5895 35.4824 39.4341 33.744 39.9288C32.0056 40.4234 29.1422 38.1974 28.631 37.7026C28.2218 37.3317 20.9614 31.7663 18.3027 29.0454C17.5868 28.3034 16.7688 26.8194 18.4048 25.0879C22.0863 21.0067 26.4834 15.9361 29.1422 12.7206C30.3694 11.2364 31.5964 7.7736 26.4834 11.9784C19.223 18.0385 12.0648 23.7275 12.0648 23.7275C12.0648 23.7275 10.4286 24.9642 7.36082 23.8511C4.29291 22.7382 0.713797 21.254 0.713797 21.254C0.713797 21.254 -1.74031 19.3989 2.45233 17.4201Z" fill="#606060"/>
</svg>
