<svg width="22" height="22" viewBox="0 0 22 22" fill="none" xmlns="http://www.w3.org/2000/svg">
<path d="M14.2465 4.17494C13.8575 4.17494 13.5233 4.0341 13.244 3.75242C12.9647 3.47074 12.825 3.1354 12.825 2.74642C12.825 2.35744 12.9658 2.02328 13.2475 1.74394C13.5292 1.46461 13.8645 1.32494 14.2535 1.32494C14.6425 1.32494 14.9767 1.46579 15.256 1.74747C15.5353 2.02915 15.675 2.36449 15.675 2.75347C15.675 3.14245 15.5342 3.47661 15.2525 3.75594C14.9708 4.03528 14.6355 4.17494 14.2465 4.17494ZM14.2465 20.6749C13.8575 20.6749 13.5233 20.5341 13.244 20.2524C12.9647 19.9707 12.825 19.6354 12.825 19.2464C12.825 18.8574 12.9658 18.5233 13.2475 18.2439C13.5292 17.9646 13.8645 17.8249 14.2535 17.8249C14.6425 17.8249 14.9767 17.9658 15.256 18.2475C15.5353 18.5292 15.675 18.8645 15.675 19.2535C15.675 19.6425 15.5342 19.9766 15.2525 20.2559C14.9708 20.5353 14.6355 20.6749 14.2465 20.6749ZM18.2465 7.67494C17.8575 7.67494 17.5233 7.5341 17.244 7.25242C16.9647 6.97074 16.825 6.6354 16.825 6.24642C16.825 5.85744 16.9658 5.52328 17.2475 5.24394C17.5292 4.96461 17.8645 4.82494 18.2535 4.82494C18.6425 4.82494 18.9767 4.96579 19.256 5.24747C19.5353 5.52915 19.675 5.86449 19.675 6.25347C19.675 6.64245 19.5342 6.97661 19.2525 7.25594C18.9708 7.53528 18.6355 7.67494 18.2465 7.67494ZM18.2465 17.1749C17.8575 17.1749 17.5233 17.0341 17.244 16.7524C16.9647 16.4707 16.825 16.1354 16.825 15.7464C16.825 15.3574 16.9658 15.0233 17.2475 14.7439C17.5292 14.4646 17.8645 14.3249 18.2535 14.3249C18.6425 14.3249 18.9767 14.4658 19.256 14.7475C19.5353 15.0292 19.675 15.3645 19.675 15.7535C19.675 16.1425 19.5342 16.4766 19.2525 16.7559C18.9708 17.0353 18.6355 17.1749 18.2465 17.1749ZM19.7465 12.4249C19.3575 12.4249 19.0233 12.2841 18.744 12.0024C18.4647 11.7207 18.325 11.3854 18.325 10.9964C18.325 10.6074 18.4658 10.2733 18.7475 9.99395C19.0292 9.71461 19.3645 9.57494 19.7535 9.57494C20.1425 9.57494 20.4767 9.71579 20.756 9.99747C21.0353 10.2792 21.175 10.6145 21.175 11.0035C21.175 11.3925 21.0342 11.7266 20.7525 12.0059C20.4708 12.2853 20.1355 12.4249 19.7465 12.4249ZM0.625 10.9999C0.625 8.31661 1.50833 5.99578 3.275 4.03744C5.04167 2.07911 7.24167 0.958277 9.875 0.674944C10.175 0.658277 10.4375 0.762294 10.6625 0.986994C10.8875 1.21169 11 1.48506 11 1.80709C11 2.11899 10.9088 2.39385 10.7264 2.63167C10.5439 2.86949 10.3101 3.01724 10.025 3.07494C8.04167 3.30828 6.375 4.17189 5.025 5.66577C3.675 7.15965 3 8.93849 3 11.0023C3 13.0457 3.675 14.8187 5.025 16.3212C6.375 17.8237 8.04167 18.6916 10.025 18.9249C10.3101 18.9829 10.5439 19.1315 10.7264 19.3708C10.9088 19.6101 11 19.8864 11 20.1999C11 20.5177 10.889 20.7888 10.667 21.0133C10.445 21.2377 10.181 21.3333 9.875 21.2999C7.25833 21.0333 5.0625 19.9208 3.2875 17.9624C1.5125 16.0041 0.625 13.6833 0.625 10.9999ZM10.9978 13.1749C10.3905 13.1749 9.87656 12.9641 9.45593 12.5424C9.03531 12.1208 8.825 11.6066 8.825 10.9999C8.825 10.9291 8.82917 10.8531 8.8375 10.7718C8.84583 10.6906 8.85833 10.6138 8.875 10.5416L7.55 9.22494C7.31667 8.99161 7.2 8.72078 7.2 8.41244C7.2 8.10411 7.325 7.82494 7.575 7.57494C7.80833 7.34161 8.08333 7.22911 8.4 7.23744C8.71667 7.24578 8.99167 7.35828 9.225 7.57494L10.5716 8.87494C10.6572 8.84161 10.8 8.82494 11 8.82494C11.6067 8.82494 12.1208 9.03599 12.5425 9.45809C12.9642 9.88019 13.175 10.3949 13.175 11.0022C13.175 11.6094 12.964 12.1234 12.5419 12.544C12.1198 12.9646 11.6051 13.1749 10.9978 13.1749Z" fill="#203253"/>
</svg>
